<svg id="Capa_1" data-name="Capa 1" xmlns="http://www.w3.org/2000/svg" viewBox="0 0 250 70.55"><defs><style>.cls-1{fill:#1d1d1b;}.cls-2{fill:#e20613;}</style></defs><polygon class="cls-1" points="145.8 62.3 145.71 62.3 144.43 62.3 143.01 63.37 145.71 63.37 145.8 63.37 148.51 63.37 147.08 62.3 145.8 62.3"/><path class="cls-1" d="M116.44,56.65a8.2,8.2,0,1,0,8.2-8.21A8.2,8.2,0,0,0,116.44,56.65Zm3,0a5.16,5.16,0,1,1,5.16,5.15A5.16,5.16,0,0,1,119.48,56.65Z"/><path class="cls-1" d="M134.81,56.65a8.2,8.2,0,1,0,8.2-8.21A8.2,8.2,0,0,0,134.81,56.65Zm3.05,0A5.16,5.16,0,1,1,143,61.8,5.15,5.15,0,0,1,137.86,56.65Z"/><path class="cls-1" d="M203.4,56.65a8.21,8.21,0,1,0,8.21-8.21A8.2,8.2,0,0,0,203.4,56.65Zm3,0a5.16,5.16,0,1,1,5.16,5.15A5.16,5.16,0,0,1,206.45,56.65Z"/><path class="cls-1" d="M181.51,51.63l.14,0v8.55H201.2V56.65A10.4,10.4,0,0,1,222,55.94v4.22h4.83V51.49H225V39.21s-13.42-5.44-21.19-5.79c-2.21-5.74-4.35-11.64-4.35-11.64h-2.61C190.53,12.36,184.65,9.7,182.59,9a1.37,1.37,0,0,0-1.08-.53H163.34A1.37,1.37,0,0,0,162,9.86v40.4a1.37,1.37,0,0,0,1.37,1.37Zm3.25,1.42H198v4.78h-13.2Zm0-28.16h12.5c.82,2.23,2.21,6,3.62,9.65v0H184.76Z"/><path class="cls-1" d="M155.61,52.94H177.8c.7,0,1.27.8,1.27,1.78v5.35c0,1-.57,1.77-1.27,1.77H155.61c-.7,0-1.27-.79-1.27-1.77V54.72C154.34,53.74,154.91,52.94,155.61,52.94Z"/><path class="cls-2" d="M36,56.65a8.2,8.2,0,1,0,8.2-8.21A8.2,8.2,0,0,0,36,56.65Z"/><path class="cls-2" d="M54.35,56.65a8.2,8.2,0,1,0,8.2-8.21A8.2,8.2,0,0,0,54.35,56.65Z"/><path class="cls-1" d="M27,5.93H153.43a1.42,1.42,0,0,1,1.37,1.48V44.12a1.42,1.42,0,0,1-1.37,1.48H27a1.43,1.43,0,0,1-1.37-1.48V7.41A1.43,1.43,0,0,1,27,5.93Z"/><rect class="cls-1" x="73.18" y="49.98" width="29.52" height="7.73"/><rect class="cls-1" x="104.58" y="47.82" width="4.24" height="9.89"/><rect class="cls-1" x="105.29" y="58.42" width="2.83" height="3.18"/><path class="cls-1" d="M35.1,47.79A1.14,1.14,0,0,1,36,49.91s-2.42,1.23-2.37,6.73c0,1.77,0,2.86,0,3.51,0,.23,0,.47,0,.69v.06h0c0,.68-.27,1.23-1.11,1.24h0c-.86,0-1.07-.64-1.13-1.21h0c0-.17,0-.33,0-.47h0c0-.52,0-1.6,0-3.8a18.13,18.13,0,0,1,.09-2h-1.1V51h2A5.93,5.93,0,0,1,35.1,47.79Z"/></svg>