<svg id="Capa_1" data-name="Capa 1" xmlns="http://www.w3.org/2000/svg" viewBox="0 0 250 80.83"><defs><style>.cls-1{fill:#1d1d1b;}.cls-2{fill:#e20613;}</style></defs><path class="cls-1" d="M142.72,65.26a9.37,9.37,0,1,0,9.36-9.36A9.37,9.37,0,0,0,142.72,65.26Zm3.47,0a5.89,5.89,0,1,1,5.89,5.89A5.89,5.89,0,0,1,146.19,65.26Z"/><path class="cls-2" d="M192.13,65.26a9.37,9.37,0,1,0,9.36-9.36A9.37,9.37,0,0,0,192.13,65.26Z"/><path class="cls-1" d="M164.77,55.75h23.77c.75,0,1.36.91,1.36,2v6.1c0,1.12-.61,2-1.36,2H164.77c-.75,0-1.36-.91-1.36-2v-6.1C163.41,56.66,164,55.75,164.77,55.75Z"/><path class="cls-1" d="M180.78,67.32H189c.26,0,.47.32.47.7v2.1c0,.39-.21.7-.47.7h-8.18c-.26,0-.47-.31-.47-.7V68C180.31,67.64,180.52,67.32,180.78,67.32Z"/><path class="cls-1" d="M165,67.32h13.3a.74.74,0,0,1,.76.7v2.1a.73.73,0,0,1-.76.7H165a.73.73,0,0,1-.76-.7V68A.74.74,0,0,1,165,67.32Z"/><path class="cls-1" d="M39.38,65.26a9.37,9.37,0,1,0,9.37-9.36A9.38,9.38,0,0,0,39.38,65.26Zm3.48,0a5.89,5.89,0,1,1,5.89,5.89A5.89,5.89,0,0,1,42.86,65.26Z"/><path class="cls-1" d="M60.36,65.26a9.37,9.37,0,1,0,9.36-9.36A9.37,9.37,0,0,0,60.36,65.26Zm3.48,0a5.89,5.89,0,1,1,5.88,5.89A5.89,5.89,0,0,1,63.84,65.26Z"/><path class="cls-1" d="M81,65.26a9.36,9.36,0,1,0,9.36-9.36A9.37,9.37,0,0,0,81,65.26Zm3.47,0a5.89,5.89,0,1,1,5.89,5.89A5.89,5.89,0,0,1,84.46,65.26Z"/><path class="cls-1" d="M29.11,7.35H173.49A1.64,1.64,0,0,1,175.06,9V51a1.63,1.63,0,0,1-1.57,1.69H29.11A1.63,1.63,0,0,1,27.54,51V9A1.64,1.64,0,0,1,29.11,7.35Z"/><rect class="cls-1" x="102.59" y="57.65" width="28.15" height="8.83"/><rect class="cls-1" x="132.88" y="55.18" width="4.84" height="11.3"/><rect class="cls-1" x="133.69" y="67.29" width="3.23" height="3.63"/><polygon class="cls-1" points="135.25 71.77 135.35 71.77 136.82 71.77 138.44 72.98 135.35 72.98 135.25 72.98 132.16 72.98 133.79 71.77 135.25 71.77"/><path class="cls-1" d="M212.94,65.26c0,2.15-.49,5.89,1,5.89h9.56a1.57,1.57,0,0,0,1.57-1.57V28.09a1.56,1.56,0,0,0-1.57-1.56h.21c-7.44-11.64-14.53-14.84-17-15.64a1.56,1.56,0,0,0-1.24-.61H184.81a1.56,1.56,0,0,0-1.57,1.56v42h18.25a10.43,10.43,0,0,1,1.38.09c.34,0,.67.09,1,.16l.1,0c.29.06.57.14.84.22l.17,0c.3.1.6.2.89.32l.1,0,.73.34.24.13A11.45,11.45,0,0,1,212.94,65.26Zm-5.82-22.51V29.66H222V42.75Z"/><path class="cls-1" d="M38.34,55.29a1.31,1.31,0,0,1,1,2.42s-2.77,1.4-2.72,7.68c0,2,0,3.27,0,4,0,.26,0,.53,0,.79v.07h0c-.06.77-.31,1.4-1.27,1.42h0c-1,0-1.22-.74-1.29-1.39h0v0c0-.19,0-.37,0-.53h0c0-.59,0-1.82,0-4.33a20.5,20.5,0,0,1,.11-2.3H32.84V58.93h2.3A6.73,6.73,0,0,1,38.34,55.29Z"/></svg>