<svg id="Capa_1" data-name="Capa 1" xmlns="http://www.w3.org/2000/svg" viewBox="0 0 250 71.65"><defs><style>.cls-1{fill:#1d1d1b;}.cls-2{fill:#e20613;}</style></defs><polygon class="cls-1" points="106.61 63.92 106.7 63.92 107.98 63.92 109.4 64.98 106.7 64.98 106.61 64.98 103.9 64.98 105.33 63.92 106.61 63.92"/><path class="cls-2" d="M116.44,58.26a8.2,8.2,0,1,0,8.2-8.2A8.2,8.2,0,0,0,116.44,58.26Z"/><path class="cls-2" d="M134.81,58.26a8.2,8.2,0,1,0,8.2-8.2A8.2,8.2,0,0,0,134.81,58.26Z"/><path class="cls-1" d="M203.4,58.26a8.21,8.21,0,1,0,8.21-8.2A8.21,8.21,0,0,0,203.4,58.26Zm3,0a5.16,5.16,0,1,1,5.16,5.16A5.16,5.16,0,0,1,206.45,58.26Z"/><path class="cls-1" d="M181.51,53.24h.14v8.54H201.2V58.26a10.4,10.4,0,0,1,20.77-.7v4.21h4.83V53.1H225V40.83S211.55,35.38,203.78,35c-2.21-5.75-4.35-11.64-4.35-11.64h-2.61c-6.29-9.43-12.17-12.08-14.23-12.76a1.35,1.35,0,0,0-1.08-.54H163.34A1.37,1.37,0,0,0,162,11.47v40.4a1.37,1.37,0,0,0,1.37,1.37Zm3.25,1.42H198v4.78h-13.2Zm0-28.16h12.5c.82,2.24,2.21,6,3.62,9.65v0H184.76Z"/><path class="cls-1" d="M155.61,54.56H177.8c.7,0,1.27.79,1.27,1.77v5.35c0,1-.57,1.77-1.27,1.77H155.61c-.7,0-1.27-.79-1.27-1.77V56.33C154.34,55.35,154.91,54.56,155.61,54.56Z"/><path class="cls-1" d="M36,58.26a8.2,8.2,0,1,0,8.2-8.2A8.2,8.2,0,0,0,36,58.26Zm3,0a5.16,5.16,0,1,1,5.16,5.16A5.16,5.16,0,0,1,39,58.26Z"/><path class="cls-1" d="M54.35,58.26a8.2,8.2,0,1,0,8.2-8.2A8.2,8.2,0,0,0,54.35,58.26Zm3,0a5.16,5.16,0,1,1,5.15,5.16A5.16,5.16,0,0,1,57.4,58.26Z"/><path class="cls-1" d="M27,7.54H153.43A1.42,1.42,0,0,1,154.8,9V45.74a1.43,1.43,0,0,1-1.37,1.48H27a1.44,1.44,0,0,1-1.37-1.48V9A1.43,1.43,0,0,1,27,7.54Z"/><rect class="cls-1" x="73.18" y="51.59" width="29.52" height="7.73"/><rect class="cls-1" x="104.58" y="49.43" width="4.24" height="9.89"/><rect class="cls-1" x="105.29" y="60.03" width="2.83" height="3.18"/><path class="cls-1" d="M35.1,49.4A1.15,1.15,0,0,1,36,51.53s-2.42,1.22-2.37,6.72c0,1.77,0,2.87,0,3.51,0,.24,0,.47,0,.69v.06h0c0,.68-.27,1.23-1.11,1.25h0c-.86,0-1.07-.65-1.13-1.22h0c0-.17,0-.33,0-.46h0c0-.53,0-1.6,0-3.8a18.2,18.2,0,0,1,.09-2h-1.1V52.59h2A6,6,0,0,1,35.1,49.4Z"/></svg>