<svg id="Capa_1" data-name="Capa 1" xmlns="http://www.w3.org/2000/svg" viewBox="0 0 250 100.41"><defs><style>.cls-1{fill:#1d1d1b;}.cls-2{fill:#e20613;}</style></defs><path class="cls-1" d="M40.06,65.05a2,2,0,0,1,2.66,1.12,2,2,0,0,1-1.1,2.63c-.17.09-4.35,2.14-4.26,12,0,3.15,0,5.09,0,6.24,0,.42,0,.84,0,1.23,0,0,0,.08,0,.11h0c-.09,1.21-.48,2.19-2,2.21h0c-1.53,0-1.91-1.15-2-2.16h0v0c0-.3,0-.59,0-.83h0c0-.93,0-2.84,0-6.75a33.32,33.32,0,0,1,.16-3.58h-2V70.72h3.58C37,66.34,39.87,65.13,40.06,65.05Z"/><path class="cls-1" d="M41.58,80.81A14.58,14.58,0,1,0,56.16,66.23,14.58,14.58,0,0,0,41.58,80.81Zm5.41,0A9.17,9.17,0,1,1,56.16,90,9.17,9.17,0,0,1,47,80.81Z"/><path class="cls-1" d="M73.85,80.81A14.58,14.58,0,1,0,88.43,66.23,14.58,14.58,0,0,0,73.85,80.81Zm5.41,0A9.17,9.17,0,1,1,88.43,90,9.17,9.17,0,0,1,79.26,80.81Z"/><path class="cls-1" d="M175.47,80.81a14.58,14.58,0,1,0,14.58-14.57A14.58,14.58,0,0,0,175.47,80.81Zm5.41,0A9.17,9.17,0,1,1,190.05,90,9.16,9.16,0,0,1,180.88,80.81Z"/><path class="cls-2" d="M141.93,80.81a14.58,14.58,0,1,0,14.58-14.57A14.58,14.58,0,0,0,141.93,80.81Z"/><path class="cls-1" d="M108.55,66h27.78c.88,0,1.59,1.6,1.59,3.57V80.32c0,2-.71,3.57-1.59,3.57H108.55c-.87,0-1.58-1.6-1.58-3.57V69.57C107,67.6,107.68,66,108.55,66Z"/><path class="cls-1" d="M207.88,80.81c0,3.36-.77,6.72,1.6,6.72L224.42,86c1.35,0,2.38-4.49,2.38-5.84V22.94a2.44,2.44,0,0,0-2.44-2.44h-40.9c-.59,0-1.08.7-1.08,1.56V63.82h12.56a5.12,5.12,0,0,1,.56,0A17.86,17.86,0,0,1,207.88,80.81Zm-9.07-35.05V25.38h23.11V45.76Z"/><path class="cls-1" d="M30.3,55.24h132a2.32,2.32,0,0,0,2-1.61L176.37,15.9h0l2-5.69H193.7V4.53H174l-12.25,7.54H44.22a2.3,2.3,0,0,0-1.95,1.61l-12.89,40C29.1,54.52,29.51,55.24,30.3,55.24Zm114.63-8.49,9.19-28.49h10.59l-9.19,28.49Zm-25.44,0,9.19-28.49h10.59l-9.19,28.49Zm-25.44,0,9.19-28.49h10.59l-9.19,28.49Zm-25.44,0L77.8,18.26H88.38L79.2,46.75Zm-25.44,0,9.19-28.49H62.94L53.76,46.75Z"/><rect class="cls-1" x="45.19" y="58.19" width="130.28" height="3.66"/></svg>