<svg id="Capa_1" data-name="Capa 1" xmlns="http://www.w3.org/2000/svg" viewBox="0 0 250 250"><defs><style>.cls-1{fill:#1d1d1b;}.cls-2{fill:#f5a027;}</style></defs><path class="cls-1" d="M40.06,148.58a2,2,0,0,1,2.66,1.12,2,2,0,0,1-1.1,2.63c-.17.09-4.35,2.14-4.26,12,0,3.15,0,5.09,0,6.24,0,.42,0,.84,0,1.23,0,.05,0,.08,0,.11h0c-.09,1.21-.48,2.19-2,2.21h0c-1.53,0-1.91-1.15-2-2.16h0v0c0-.3,0-.59,0-.83h0c0-.93,0-2.84,0-6.75a33.32,33.32,0,0,1,.16-3.58h-2v-6.51h3.58C37,149.87,39.87,148.66,40.06,148.58Z"/><path class="cls-1" d="M41.58,164.34a14.58,14.58,0,1,0,14.58-14.57A14.58,14.58,0,0,0,41.58,164.34Zm5.41,0a9.17,9.17,0,1,1,9.17,9.17A9.17,9.17,0,0,1,47,164.34Z"/><path class="cls-1" d="M73.85,164.34a14.58,14.58,0,1,0,14.58-14.57A14.58,14.58,0,0,0,73.85,164.34Zm5.41,0a9.17,9.17,0,1,1,9.17,9.17A9.17,9.17,0,0,1,79.26,164.34Z"/><path class="cls-1" d="M175.47,164.35a14.58,14.58,0,1,0,14.58-14.58A14.57,14.57,0,0,0,175.47,164.35Zm5.41,0a9.17,9.17,0,1,1,9.17,9.16A9.16,9.16,0,0,1,180.88,164.35Z"/><path class="cls-2" d="M141.93,164.35a14.58,14.58,0,1,0,14.58-14.58A14.57,14.57,0,0,0,141.93,164.35Z"/><path class="cls-1" d="M108.55,149.53h27.78c.88,0,1.59,1.6,1.59,3.57v10.75c0,2-.71,3.57-1.59,3.57H108.55c-.87,0-1.58-1.6-1.58-3.57V153.1C107,151.13,107.68,149.53,108.55,149.53Z"/><path class="cls-1" d="M207.88,164.35c0,3.35-.77,6.72,1.6,6.72l14.94-1.58c1.35,0,2.38-4.49,2.38-5.84V106.47a2.44,2.44,0,0,0-2.44-2.44h-40.9c-.59,0-1.08.7-1.08,1.56v41.76h12.56a5.12,5.12,0,0,1,.56,0A17.86,17.86,0,0,1,207.88,164.35Zm-9.07-35.06V108.91h23.11v20.38Z"/><path class="cls-1" d="M30.3,138.77h132a2.32,2.32,0,0,0,2-1.61l12.16-37.73h0l2-5.69H193.7V88.06H174L161.73,95.6H44.22a2.3,2.3,0,0,0-1.95,1.61l-12.89,40C29.1,138.05,29.51,138.77,30.3,138.77Zm114.63-8.49,9.19-28.49h10.59l-9.19,28.49Zm-25.44,0,9.19-28.49h10.59l-9.19,28.49Zm-25.44,0,9.19-28.49h10.59l-9.19,28.49Zm-25.44,0,9.19-28.49H88.38L79.2,130.28Zm-25.44,0,9.19-28.49H62.94l-9.18,28.49Z"/><rect class="cls-1" x="45.19" y="141.72" width="130.28" height="3.66"/></svg>