<svg id="Capa_1" data-name="Capa 1" xmlns="http://www.w3.org/2000/svg" viewBox="0 0 410.82 560.33"><defs><style>.cls-1{font-size:10px;font-family:Oswald-Demi-BoldItalic, Oswald;font-weight:700;font-style:italic;}.cls-1,.cls-5{fill:#1d1d1b;}.cls-2{letter-spacing:0em;}.cls-3{letter-spacing:0em;}.cls-4{letter-spacing:0em;}.cls-6{fill:#f5a027;}</style></defs><text class="cls-1" transform="translate(72.52 218.96)">Aplicación: TRAC-ON/ OFF</text><text class="cls-1" transform="translate(247.6 218.9)">Aplicación: TRAC-ON</text><text class="cls-1" transform="translate(248.23 116.09)">Aplicación: TRAC-OFF</text><text class="cls-1" transform="translate(73.04 118.12)">Aplicación: MIXTO-ON/OFF</text><text class="cls-1" transform="translate(65.68 316.65)">Aplicación: MIXTO-ON/OFF</text><text class="cls-1" transform="translate(248.34 314.62)">Aplicación: DIR-ON</text><text class="cls-1" transform="translate(76.74 409.46)">Aplicación: UR<tspan class="cls-2" x="57.5" y="0">B</tspan><tspan x="63.18" y="0">ANO</tspan></text><text class="cls-1" transform="translate(236.42 412.35)">Aplicación: TRASERO <tspan class="cls-3" x="84.52" y="0">A</tspan><tspan x="89.82" y="0">GRÍCOLA </tspan></text><text class="cls-1" transform="translate(73.95 513.81)">Aplicación: FORES<tspan class="cls-4" x="71.04" y="0">T</tspan><tspan x="75.32" y="0">AL</tspan></text><text class="cls-1" transform="translate(248.34 516.01)">Aplicación: CARGADOR</text><path class="cls-5" d="M78.75,80.89v2.66h44.42V80.89H117.1s6.64-6.77,6.74-24.28h8.29V54H121.46l-5.7,6.63-49-.11V71.05l13.41,9.84Z"/><path class="cls-5" d="M100.05,47.84a8.11,8.11,0,0,0-11.46,0L78,58.41h32.6Z"/><path class="cls-6" d="M82.27,85.64a7.48,7.48,0,1,0,7.48,7.48A7.48,7.48,0,0,0,82.27,85.64Z"/><path class="cls-6" d="M99,85.64a7.48,7.48,0,1,0,7.47,7.48A7.48,7.48,0,0,0,99,85.64Z"/><path class="cls-6" d="M153.2,85.64a7.48,7.48,0,1,0,7.48,7.48A7.48,7.48,0,0,0,153.2,85.64Z"/><path class="cls-5" d="M165.39,88.41V77.22s-12.24-5-19.33-5.28c-2-5.24-4-10.62-4-10.62H125.88V90.69h-2.82c-.39-2.29-1.77-4-3.41-4h-6.72c-1.64,0-3,1.69-3.41,4h-1.58a9.2,9.2,0,0,1,.33,2.43c0,.07,0,.15,0,.22h1.26c.39,2.29,1.77,4,3.41,4h6.72c1.64,0,3-1.69,3.41-4h2.82v3h17.83v-3.2a9.48,9.48,0,0,1,18.94-.64v3.84h4.4V88.41Zm-24.64,5.78h-12V89.84h12ZM128.71,73V64.16h11.41c.75,2,2,5.46,3.3,8.8v0Z"/><path class="cls-5" d="M112.55,295.16a4.17,4.17,0,1,0,4.17-4.17A4.17,4.17,0,0,0,112.55,295.16Zm1.55,0a2.62,2.62,0,1,1,2.62,2.62A2.62,2.62,0,0,1,114.1,295.16Z"/><path class="cls-5" d="M121.89,295.16a4.17,4.17,0,1,0,4.17-4.17A4.17,4.17,0,0,0,121.89,295.16Zm1.55,0a2.63,2.63,0,1,1,2.62,2.62A2.62,2.62,0,0,1,123.44,295.16Z"/><path class="cls-5" d="M156.78,295.16A4.17,4.17,0,1,0,161,291,4.17,4.17,0,0,0,156.78,295.16Zm1.54,0a2.63,2.63,0,1,1,2.63,2.62A2.62,2.62,0,0,1,158.32,295.16Z"/><path class="cls-5" d="M145.64,292.61h.07V297h9.95v-1.79a5.29,5.29,0,0,1,10.56-.36V297h2.46v-4.41h-.94v-6.25s-6.82-2.76-10.77-2.94c-1.13-2.92-2.21-5.92-2.21-5.92h-1.33c-3.2-4.79-6.19-6.14-7.24-6.49a.7.7,0,0,0-.55-.27H136.4a.7.7,0,0,0-.7.7v20.54a.7.7,0,0,0,.7.7Zm1.65.72H154v2.43h-6.72Zm0-14.32h6.36c.42,1.14,1.13,3,1.84,4.91h-8.2Z"/><path class="cls-5" d="M132.47,293.28h11.29c.35,0,.64.4.64.9v2.72c0,.5-.29.9-.64.9H132.47c-.36,0-.65-.4-.65-.9v-2.72C131.82,293.68,132.11,293.28,132.47,293.28Z"/><path class="cls-6" d="M71.63,295.16A4.17,4.17,0,1,0,75.8,291,4.17,4.17,0,0,0,71.63,295.16Z"/><path class="cls-6" d="M81,295.16A4.17,4.17,0,1,0,85.14,291,4.17,4.17,0,0,0,81,295.16Z"/><path class="cls-5" d="M67.05,269.37h64.31a.73.73,0,0,1,.7.75v18.67a.73.73,0,0,1-.7.75H67.05a.73.73,0,0,1-.7-.75V270.12A.73.73,0,0,1,67.05,269.37Z"/><rect class="cls-5" x="90.55" y="291.77" width="15.01" height="3.93"/><rect class="cls-5" x="106.51" y="290.67" width="2.16" height="5.03"/><rect class="cls-5" x="106.87" y="296.06" width="1.44" height="1.62"/><path class="cls-5" d="M71.18,290.66a.57.57,0,0,1,.75.32.58.58,0,0,1-.32.76s-1.23.62-1.21,3.42c0,.9,0,1.45,0,1.78,0,.12,0,.24,0,.35v0h0c0,.35-.14.63-.57.64h0c-.44,0-.55-.33-.58-.62h0a1.93,1.93,0,0,1,0-.23h0c0-.27,0-.82,0-1.94a8.2,8.2,0,0,1,.05-1h-.56v-1.86h1A3,3,0,0,1,71.18,290.66Z"/><polygon class="cls-5" points="284.67 197.32 284.72 197.32 285.37 197.32 286.09 197.86 284.72 197.86 284.67 197.86 283.3 197.86 284.02 197.32 284.67 197.32"/><path class="cls-6" d="M289.67,194.44a4.17,4.17,0,1,0,4.17-4.17A4.17,4.17,0,0,0,289.67,194.44Z"/><path class="cls-6" d="M299,194.44a4.17,4.17,0,1,0,4.17-4.17A4.17,4.17,0,0,0,299,194.44Z"/><path class="cls-5" d="M333.9,194.44a4.17,4.17,0,1,0,4.17-4.17A4.17,4.17,0,0,0,333.9,194.44Zm1.55,0a2.62,2.62,0,1,1,2.62,2.62A2.62,2.62,0,0,1,335.45,194.44Z"/><path class="cls-5" d="M322.77,191.89h.07v4.35h9.94v-1.79a5.29,5.29,0,0,1,10.56-.36v2.15h2.46v-4.41h-.93v-6.24s-6.83-2.77-10.78-3c-1.12-2.92-2.21-5.92-2.21-5.92h-1.33c-3.19-4.79-6.19-6.14-7.23-6.49a.72.72,0,0,0-.55-.27h-9.24a.7.7,0,0,0-.7.7v20.54a.7.7,0,0,0,.7.7Zm1.65.72h6.71V195h-6.71Zm0-14.32h6.36c.41,1.14,1.12,3.05,1.84,4.91h-8.2Z"/><path class="cls-5" d="M309.59,192.56h11.29c.36,0,.65.4.65.9v2.72c0,.5-.29.9-.65.9H309.59c-.35,0-.64-.4-.64-.9v-2.72C309,193,309.24,192.56,309.59,192.56Z"/><path class="cls-5" d="M248.75,194.44a4.17,4.17,0,1,0,4.17-4.17A4.17,4.17,0,0,0,248.75,194.44Zm1.55,0a2.62,2.62,0,1,1,2.62,2.62A2.62,2.62,0,0,1,250.3,194.44Z"/><path class="cls-5" d="M258.1,194.44a4.17,4.17,0,1,0,4.17-4.17A4.17,4.17,0,0,0,258.1,194.44Zm1.54,0a2.63,2.63,0,1,1,2.63,2.62A2.62,2.62,0,0,1,259.64,194.44Z"/><path class="cls-5" d="M244.18,168.65h64.3a.72.72,0,0,1,.7.75v18.67a.72.72,0,0,1-.7.75h-64.3a.72.72,0,0,1-.7-.75V169.4A.72.72,0,0,1,244.18,168.65Z"/><rect class="cls-5" x="267.67" y="191.05" width="15.01" height="3.93"/><rect class="cls-5" x="283.64" y="189.95" width="2.16" height="5.03"/><rect class="cls-5" x="284" y="195.34" width="1.44" height="1.62"/><path class="cls-5" d="M248.3,189.94a.58.58,0,0,1,.76.32.59.59,0,0,1-.32.76s-1.24.62-1.21,3.42c0,.9,0,1.45,0,1.78,0,.12,0,.24,0,.35v0h0c0,.34-.14.62-.57.63h0c-.43,0-.54-.33-.57-.62h0a1.85,1.85,0,0,1,0-.23h0c0-.27,0-.82,0-1.93a8.45,8.45,0,0,1,0-1h-.56v-1.86h1A3,3,0,0,1,248.3,189.94Z"/><path class="cls-5" d="M73.7,185.82a1.05,1.05,0,0,1,1.36.57,1,1,0,0,1-.56,1.34c-.09,0-2.22,1.08-2.17,6.09,0,1.6,0,2.59,0,3.17,0,.21,0,.43,0,.63v0h0c0,.62-.25,1.12-1,1.13h0c-.78,0-1-.59-1-1.1h0a3.17,3.17,0,0,1,0-.42h0c0-.48,0-1.45,0-3.44a15,15,0,0,1,.08-1.82h-1V188.7h1.82A5.36,5.36,0,0,1,73.7,185.82Z"/><path class="cls-5" d="M74.48,193.84a7.42,7.42,0,1,0,7.41-7.42A7.41,7.41,0,0,0,74.48,193.84Zm2.75,0a4.66,4.66,0,1,1,4.66,4.66A4.67,4.67,0,0,1,77.23,193.84Z"/><path class="cls-5" d="M90.89,193.84a7.42,7.42,0,1,0,7.41-7.42A7.41,7.41,0,0,0,90.89,193.84Zm2.75,0a4.66,4.66,0,1,1,4.66,4.66A4.67,4.67,0,0,1,93.64,193.84Z"/><path class="cls-5" d="M142.57,193.84a7.42,7.42,0,1,0,7.41-7.42A7.41,7.41,0,0,0,142.57,193.84Zm2.75,0A4.67,4.67,0,1,1,150,198.5,4.67,4.67,0,0,1,145.32,193.84Z"/><path class="cls-6" d="M125.51,193.84a7.42,7.42,0,1,0,7.42-7.42A7.42,7.42,0,0,0,125.51,193.84Z"/><path class="cls-5" d="M108.54,186.3h14.12c.45,0,.81.82.81,1.82v5.46c0,1-.36,1.82-.81,1.82H108.54c-.45,0-.81-.81-.81-1.82v-5.46C107.73,187.12,108.09,186.3,108.54,186.3Z"/><path class="cls-5" d="M159.05,193.84c0,1.7-.39,3.41.82,3.41l7.6-.8c.68,0,1.21-2.28,1.21-3V164.4a1.25,1.25,0,0,0-1.25-1.24h-20.8c-.3,0-.54.35-.54.79v21.24h6.38l.29,0A9.07,9.07,0,0,1,159.05,193.84ZM154.44,176V165.64h11.75V176Z"/><path class="cls-5" d="M68.74,180.83h67.11a1.18,1.18,0,0,0,1-.82L143,160.82h0l1-2.89h7.8V155h-10l-6.23,3.83H75.82a1.18,1.18,0,0,0-1,.82L68.27,180C68.13,180.46,68.33,180.83,68.74,180.83Zm58.3-4.32L131.71,162h5.39l-4.68,14.49Zm-12.94,0L118.77,162h5.39l-4.68,14.49Zm-12.94,0L105.83,162h5.39l-4.68,14.49Zm-12.94,0L92.89,162h5.39l-4.67,14.49Zm-12.94,0L80,162h5.38l-4.67,14.49Z"/><rect class="cls-5" x="76.31" y="182.33" width="66.26" height="1.86"/><path class="cls-5" d="M250.82,85a1.05,1.05,0,0,1,1.36.57,1,1,0,0,1-.56,1.34c-.09,0-2.21,1.09-2.17,6.09,0,1.61,0,2.59,0,3.18,0,.21,0,.42,0,.62v.06h0c-.06.61-.25,1.11-1,1.12h0c-.78,0-1-.58-1-1.1h0c0-.15,0-.29,0-.42h0c0-.47,0-1.44,0-3.43,0-.66,0-1.26.08-1.82h-1V87.91h1.82A5.4,5.4,0,0,1,250.82,85Z"/><path class="cls-5" d="M251.6,93A7.42,7.42,0,1,0,259,85.63,7.42,7.42,0,0,0,251.6,93Zm2.75,0A4.67,4.67,0,1,1,259,97.7,4.67,4.67,0,0,1,254.35,93Z"/><path class="cls-5" d="M268,93a7.42,7.42,0,1,0,7.42-7.41A7.42,7.42,0,0,0,268,93Zm2.75,0a4.67,4.67,0,1,1,4.67,4.66A4.67,4.67,0,0,1,270.76,93Z"/><path class="cls-5" d="M319.69,93a7.42,7.42,0,1,0,7.42-7.41A7.42,7.42,0,0,0,319.69,93Zm2.75,0a4.67,4.67,0,1,1,4.67,4.66A4.67,4.67,0,0,1,322.44,93Z"/><path class="cls-6" d="M302.64,93a7.42,7.42,0,1,0,7.41-7.41A7.42,7.42,0,0,0,302.64,93Z"/><path class="cls-5" d="M285.66,85.51h14.13c.45,0,.81.81.81,1.81v5.47c0,1-.36,1.82-.81,1.82H285.66c-.45,0-.81-.82-.81-1.82V87.32C284.85,86.32,285.21,85.51,285.66,85.51Z"/><path class="cls-5" d="M336.18,93c0,1.71-.39,3.42.81,3.42l7.6-.8c.69,0,1.21-2.29,1.21-3V63.61a1.24,1.24,0,0,0-1.24-1.24h-20.8c-.3,0-.55.35-.55.79V84.4h6.67A9.09,9.09,0,0,1,336.18,93Zm-4.62-17.83V64.85h11.76V75.21Z"/><path class="cls-5" d="M245.86,80H313a1.16,1.16,0,0,0,1-.81L320.15,60h0l1-2.89H329V54.24h-10l-6.24,3.84H252.94a1.15,1.15,0,0,0-1,.82L245.4,79.22C245.25,79.67,245.46,80,245.86,80Zm58.3-4.31,4.68-14.49h5.38l-4.67,14.49Zm-12.94,0,4.68-14.49h5.38l-4.67,14.49Zm-12.94,0L283,61.23h5.38l-4.67,14.49Zm-12.93,0L270,61.23h5.38l-4.67,14.49Zm-12.94,0,4.67-14.49h5.38l-4.67,14.49Z"/><rect class="cls-5" x="253.43" y="81.54" width="66.26" height="1.86"/><path class="cls-5" d="M303,294.32a4.76,4.76,0,1,0,4.76-4.77A4.76,4.76,0,0,0,303,294.32Zm1.77,0a3,3,0,1,1,3,3A3,3,0,0,1,304.81,294.32Z"/><path class="cls-6" d="M328.17,294.32a4.76,4.76,0,1,0,4.76-4.77A4.76,4.76,0,0,0,328.17,294.32Z"/><path class="cls-5" d="M314.25,289.48h12.09c.38,0,.69.46.69,1v3.11c0,.56-.31,1-.69,1H314.25c-.38,0-.69-.47-.69-1v-3.11C313.56,289.94,313.87,289.48,314.25,289.48Z"/><path class="cls-5" d="M322.39,295.36h4.17c.13,0,.23.16.23.36v1.07c0,.19-.1.35-.23.35h-4.17c-.13,0-.23-.16-.23-.35v-1.07C322.16,295.52,322.26,295.36,322.39,295.36Z"/><path class="cls-5" d="M314.37,295.36h6.77a.37.37,0,0,1,.38.36v1.07a.37.37,0,0,1-.38.35h-6.77a.37.37,0,0,1-.39-.35v-1.07A.37.37,0,0,1,314.37,295.36Z"/><path class="cls-5" d="M250.48,294.32a4.77,4.77,0,1,0,4.76-4.77A4.76,4.76,0,0,0,250.48,294.32Zm1.77,0a3,3,0,1,1,3,3A3,3,0,0,1,252.25,294.32Z"/><path class="cls-5" d="M261.15,294.32a4.77,4.77,0,1,0,4.76-4.77A4.76,4.76,0,0,0,261.15,294.32Zm1.77,0a3,3,0,1,1,3,3A3,3,0,0,1,262.92,294.32Z"/><path class="cls-5" d="M271.64,294.32a4.77,4.77,0,1,0,4.76-4.77A4.76,4.76,0,0,0,271.64,294.32Zm1.77,0a3,3,0,1,1,3,3A3,3,0,0,1,273.41,294.32Z"/><path class="cls-5" d="M245.26,264.86h73.43a.83.83,0,0,1,.79.86V287a.82.82,0,0,1-.79.86H245.26a.83.83,0,0,1-.8-.86V265.72A.84.84,0,0,1,245.26,264.86Z"/><rect class="cls-5" x="282.63" y="290.45" width="14.32" height="4.49"/><rect class="cls-5" x="298.03" y="289.19" width="2.46" height="5.75"/><rect class="cls-5" x="298.44" y="295.35" width="1.64" height="1.85"/><polygon class="cls-5" points="299.24 297.62 299.29 297.62 300.04 297.62 300.86 298.24 299.29 298.24 299.24 298.24 297.67 298.24 298.5 297.62 299.24 297.62"/><path class="cls-5" d="M338.75,294.32c0,1.09-.25,3,.53,3h4.86a.79.79,0,0,0,.79-.8v-21.1a.79.79,0,0,0-.79-.8h.1c-3.78-5.91-7.38-7.54-8.62-7.95a.78.78,0,0,0-.63-.31H324.44a.79.79,0,0,0-.79.8v21.34h9.28a5.36,5.36,0,0,1,.7.05l.51.08h.05a3.45,3.45,0,0,1,.43.12l.08,0a4.7,4.7,0,0,1,.45.17l.06,0,.37.17.12.07A5.81,5.81,0,0,1,338.75,294.32Zm-3-11.45v-6.66h7.55v6.66Z"/><path class="cls-5" d="M250,289.24a.66.66,0,0,1,.86.37.65.65,0,0,1-.36.86s-1.41.72-1.38,3.91c0,1,0,1.66,0,2,0,.13,0,.27,0,.4v0h0c0,.39-.16.71-.65.72h0c-.5,0-.62-.38-.66-.71h0c0-.1,0-.2,0-.27h0c0-.31,0-.93,0-2.21,0-.42,0-.81,0-1.17h-.64v-2.13h1.17A3.48,3.48,0,0,1,250,289.24Z"/><path class="cls-5" d="M109.86,365.65v22.58h9.23V365.65Zm.68,1.58a.52.52,0,0,1,.53-.52H118a.52.52,0,0,1,.53.52v5.26a.52.52,0,0,1-.53.52h-6.89a.52.52,0,0,1-.53-.52Z"/><path class="cls-5" d="M67.07,374.87v9.27h5.4a.7.7,0,0,1,.68.69v2.34h5.41a6.24,6.24,0,0,1-.07-1,7.44,7.44,0,1,1,14.87,0c0,.33,0,1.71-.07,2h15.52V365.65a1.06,1.06,0,0,1,1.06-1.06h9.22a1.07,1.07,0,0,1,1.06,1.06v22.58h21.5c0-.32-.07-1.7-.07-2a7.44,7.44,0,0,1,14.88,0,7.77,7.77,0,0,1-.07,1h5.75v-2.34a.7.7,0,0,1,.69-.69h4.71v-7.4h-1.39a.53.53,0,0,1-.53-.53v-10a.52.52,0,0,1,.53-.53h1.39v-1.4c0-3.16-21.34-3.16-21.63-3.16H70.7c-.16,0-1.34.93-2.3,3.82h4.29a.52.52,0,0,1,.53.52l-1.58,8.82a.53.53,0,0,1-.53.53h-4S67.07,374.84,67.07,374.87Zm93.86-9.44a.52.52,0,0,1,.53-.52l1.83.35a.52.52,0,0,1,.53.52v11.64a.53.53,0,0,1-.53.53,2.47,2.47,0,0,1-2.36-2.11Zm-8.85,0a.52.52,0,0,1,.53-.52h6.11a.52.52,0,0,1,.53.52v8.82a.52.52,0,0,1-.53.53h-6.11a.52.52,0,0,1-.53-.53Zm-26.86,8.82,1.06-8.82a.52.52,0,0,1,.52-.52h19.43a.52.52,0,0,1,.53.52v8.82a.53.53,0,0,1-.53.53H125.75A.53.53,0,0,1,125.22,374.25Zm-45.33,0,1.57-8.82a.52.52,0,0,1,.53-.52h20.76a.52.52,0,0,1,.53.52v8.82a.53.53,0,0,1-.53.53H80.41A.52.52,0,0,1,79.89,374.25Z"/><path class="cls-6" d="M143.28,385.85a5.94,5.94,0,1,0,5.94-6A5.95,5.95,0,0,0,143.28,385.85Z"/><path class="cls-6" d="M80.06,385.85a5.94,5.94,0,1,0,5.94-6A5.95,5.95,0,0,0,80.06,385.85Z"/><rect class="cls-5" x="66.62" y="384.66" width="5.69" height="3.45" rx="0.53"/><rect class="cls-5" x="162.99" y="384.66" width="5.69" height="3.45" rx="0.53"/><polygon class="cls-5" points="125.32 367.46 146.76 367.46 146.76 368.14 125.22 368.14 125.32 367.46"/><polygon class="cls-5" points="81.13 367.46 103.54 367.46 103.54 368.14 80.98 368.14 81.13 367.46"/><path class="cls-5" d="M105.84,481.27c0-2.14,0-4.16,0-6.19,0-1.31,0-1.34,1.36-1.35h3.21c.11-1,.22-2,.29-3,.34-4.85.66-9.69,1-14.53a1.11,1.11,0,0,0-.59-1.2c-5.92-3.53-11.82-7.09-17.73-10.63a1.05,1.05,0,0,0-.83-.09c-1.55.68-3.08,1.4-4.6,2.14a.84.84,0,0,0-.38.61c0,1.11,0,2.21,0,3.1,2.27,1.29,4.38,2.47,6.48,3.68a3.32,3.32,0,0,1,1.12,5.05,2.51,2.51,0,0,0-.31,1.1c-.2,2.14-.21,4.31-.59,6.41a9.35,9.35,0,0,1-3.49,6,1.11,1.11,0,0,1-1.58,0,1,1,0,0,1-.17-1.49c2.48-3.33,2-7,1.23-10.7a1,1,0,0,0-.65-.59,34.83,34.83,0,0,0-11.3,0,.93.93,0,0,0-.64.59c-.25,1.73-.51,3.46-.61,5.21a8,8,0,0,0,1.61,5.1c.46.64.67,1.27,0,1.9s-1.2.4-2-.27a11.12,11.12,0,0,1-3.38-6.91c-.26-1.72-.22-3.49-.35-5.24a2.64,2.64,0,0,0-.37-1.17,3.22,3.22,0,0,1,.74-4.59c2.17-1.38,4.45-2.59,6.9-4,0-.56,0-1.41,0-2.26a2.69,2.69,0,0,1,2.63-3,5.54,5.54,0,0,0,1.31-.57c2.09-1,4.18-1.94,6.25-2.94a1.54,1.54,0,0,0,.72-.73,2.8,2.8,0,0,1,4.39-1.52c3.54,2.11,7.07,4.25,10.6,6.37l8.86,5.32a.78.78,0,0,0,.15.1c2.52.73,2.84,2.54,2.63,4.85-.38,4.07-.55,8.16-.83,12.24-.13,1.83-.3,3.66-.46,5.66h3.64c3.07,0,2.66-.4,2.69,2.7,0,1.51,0,3,0,4.53a1.44,1.44,0,0,0,.09.3c.78,0,1.6,0,2.42,0s1.06.25,1,1c0,1.51,0,3,0,4.53,0,1.72-.18,1.86-2,1.54a9.54,9.54,0,0,0-3.18-7.72,9.32,9.32,0,0,0-6.39-2.48c-5.46,0-8.93,3.65-9.74,10.24,0,0,0,0-.08,0-3.27.05-2.71.28-2.75-2.62,0-1.13,0-2.27,0-3.41,0-.82.26-1.2,1.12-1.15S105,481.27,105.84,481.27Zm-21.51-29.6c-2,0-3.69-.11-5.23.79s-3,1.76-4.53,2.66a1.85,1.85,0,0,0,1.32,3.45,38.47,38.47,0,0,1,16.2,0,1.78,1.78,0,0,0,2.22-1,1.85,1.85,0,0,0-.9-2.43c-1-.6-2.06-1.12-3-1.77A8.57,8.57,0,0,0,84.33,451.67Zm28.06,22h2.3c.4-5.84.79-11.63,1.19-17.43l-2.31.34ZM91.65,443c-.54-.35-4.19,1.13-5.47,2.15C86.73,445.51,89.73,444.34,91.65,443Z"/><path class="cls-5" d="M152.83,489.49a9.7,9.7,0,1,0-19.11,0c-1.87,0-3.74,0-5.61,0a1.12,1.12,0,0,1-.74-.81c-.06-2.19,0-4.37,0-6.56,0-.63.38-.84,1-.84,1.41,0,2.82,0,4.38,0a39,39,0,0,0-1.58-3.71,11.05,11.05,0,0,1-1.16-5.69q0-3.78.07-7.56c0-1.09.13-1.19,1.24-1.19,4.53,0,9.05,0,13.57,0a2.34,2.34,0,0,1,1.45.58q5.24,5.13,10.37,10.37a2.37,2.37,0,0,1,.58,1.45c.06,1.87,0,3.74,0,5.75.63,0,1.17,0,1.72,0s.91.22.91.86c0,2.16,0,4.31,0,6.46,0,.54-.19.9-.8.9ZM145.4,475.6c1.91,0,3.81,0,5.72,0a1.56,1.56,0,0,0,1.13-.53c.14-.2-.1-.8-.33-1.09-1.7-2.1-3.51-4.12-5.13-6.28a3.42,3.42,0,0,0-3.38-1.64c-1.56.16-3.13.05-4.7.11-.61,0-1.07.32-1,1,.22,2.41.48,4.82.69,7.24.07.83.43,1.2,1.28,1.19C141.58,475.58,143.49,475.6,145.4,475.6Z"/><path class="cls-6" d="M151.76,487.82a8.49,8.49,0,1,1-8.64-8.53A8.45,8.45,0,0,1,151.76,487.82Z"/><path class="cls-6" d="M123.16,487.82a8.49,8.49,0,1,1-8.64-8.53A8.45,8.45,0,0,1,123.16,487.82Z"/><path class="cls-5" d="M77.17,487.19a3.23,3.23,0,0,1,3.2-3.25,3.28,3.28,0,0,1,3.31,3.25,3.21,3.21,0,0,1-3.26,3.27A3.15,3.15,0,0,1,77.17,487.19Z"/><path class="cls-5" d="M76.51,477.06a3.16,3.16,0,0,1,3.16,3.26,3.26,3.26,0,1,1-3.16-3.26Z"/><path class="cls-5" d="M84.43,477.05a3.21,3.21,0,0,1,3.24,3.29,3.27,3.27,0,0,1-6.54,0A3.23,3.23,0,0,1,84.43,477.05Z"/><path class="cls-5" d="M84.64,464a3.21,3.21,0,0,1-3.3,3.23,3.26,3.26,0,0,1-3.22-3.34,3.31,3.31,0,0,1,3.28-3.2A3.22,3.22,0,0,1,84.64,464Z"/><path class="cls-5" d="M72.29,490.45a3.22,3.22,0,0,1-3.14-3.39,3.27,3.27,0,0,1,6.54.26A3.2,3.2,0,0,1,72.29,490.45Z"/><path class="cls-5" d="M86.86,471.43a3.16,3.16,0,0,1-3.32,3.3,3.22,3.22,0,0,1-3.18-3.27,3.32,3.32,0,0,1,3-3.27A3.24,3.24,0,0,1,86.86,471.43Z"/><path class="cls-5" d="M88.31,490.45a3.16,3.16,0,0,1-3.16-3.35,3.26,3.26,0,1,1,6.51.28A3.18,3.18,0,0,1,88.31,490.45Z"/><path class="cls-5" d="M92.1,455.1a1.57,1.57,0,1,1,0,3.13,1.52,1.52,0,0,1-1.54-1.5A1.55,1.55,0,0,1,92.1,455.1Z"/><path class="cls-5" d="M77.29,456.7a1.45,1.45,0,0,1-1.59,1.52,1.52,1.52,0,0,1-1.45-1.59,1.52,1.52,0,1,1,3,.07Z"/><path class="cls-5" d="M140,473.89l-.57-6.18c1.79,0,3.46,0,5.13,0,.14,0,.31.19.42.33l4.82,5.84Z"/><path class="cls-5" d="M317.12,470.83l-4.74-7.13h-12v6.11a16.1,16.1,0,0,1,16.7,1Z"/><path class="cls-6" d="M307.93,471.51a12.63,12.63,0,1,0,12.63,12.63A12.64,12.64,0,0,0,307.93,471.51Z"/><path class="cls-6" d="M269.63,471.51a12.63,12.63,0,1,0,12.63,12.63A12.63,12.63,0,0,0,269.63,471.51Z"/><polygon class="cls-5" points="338.74 492.54 337.04 492.54 330.21 474.1 327.69 474.1 324.12 477.67 324.12 492.02 327.69 495.58 339.87 495.58 338.74 492.54"/><path class="cls-5" d="M296.86,472.35v-8.29l-5.63-5.7h-2.67L285.12,446h2a5,5,0,0,0-4.77-3.56h-16.6v16h-3.12V454a5.09,5.09,0,0,0-5.08-5.08v3.56a1.52,1.52,0,0,1,1.52,1.52v4.37h-5.44a2.85,2.85,0,0,0-2.85,2.85v12.46H248v5.79l5.74,1.73a16.18,16.18,0,0,1,32.1,2.66h5.94A16.16,16.16,0,0,1,296.86,472.35Zm-34.41-6.83h-7.3V462h7.3Zm15.12-7.16-3.43-3.93h-4.82V446h12.1l3.44,12.39ZM291,469.51a2.25,2.25,0,1,1,2.24-2.25A2.24,2.24,0,0,1,291,469.51Z"/><path class="cls-6" d="M272.05,367.84a13.36,13.36,0,1,0,13.36,13.36A13.36,13.36,0,0,0,272.05,367.84Z"/><path class="cls-5" d="M315,375.27a9.73,9.73,0,1,0,9.72,9.73A9.73,9.73,0,0,0,315,375.27Zm0,15.19A5.46,5.46,0,1,1,320.5,385,5.45,5.45,0,0,1,315,390.46Z"/><path class="cls-5" d="M317.41,368.78c-1.85-1.65-7.54-2.64-12.5-3.21v-5.84a1.64,1.64,0,0,1,1.6-1.69l-.16-2.63a4.26,4.26,0,0,0-4.07,4.27v5.62c-3.23-.3-5.67-.41-5.67-.41l-6.82-16.84H269.52l-2,12.73a4.92,4.92,0,0,0-3.31-1.06v5.38a13.53,13.53,0,0,0-3.37,2.45,1.31,1.31,0,0,0,0,1.86,1.33,1.33,0,0,0,.92.38,1.3,1.3,0,0,0,.94-.4,13.09,13.09,0,0,1,6.11-3.21,1.23,1.23,0,0,0,.34-.11,15.07,15.07,0,0,1,2.86-.27,15.41,15.41,0,0,1,15.4,15.4c0,1.38,0,2.63,0,4h16c0-.07,0-.13,0-.19A11.61,11.61,0,0,1,315,373.4a11.83,11.83,0,0,1,3.44.52c.11-.61.19-1.06.21-1.25C318.81,371.5,320.91,371.91,317.41,368.78Zm-40.59-7.24h-6.74v0l1.68-10.85h5.06Zm2.43.24V350.67H288l5.63,13.89Zm15.19,21.71h-4.15a.95.95,0,1,1,0-1.89h4.15a.95.95,0,1,1,0,1.89Zm0-3.28h-4.15a.95.95,0,1,1,0-1.89h4.15a.95.95,0,1,1,0,1.89Zm0-3.29h-4.15a.94.94,0,1,1,0-1.88h4.15a.94.94,0,1,1,0,1.88Z"/></svg>