<svg id="Capa_1" data-name="Capa 1" xmlns="http://www.w3.org/2000/svg" viewBox="0 0 250 125.65"><defs><style>.cls-1{fill:#1d1d1b;}.cls-2{fill:#e20613;}</style></defs><path class="cls-1" d="M103.26,89.67c0-4.21,0-8.19,0-12.17,0-2.57.09-2.64,2.69-2.65h6.32c.19-2,.42-3.91.56-5.81.67-9.52,1.3-19,2-28.56a2.19,2.19,0,0,0-1.17-2.36C102,31.17,90.42,24.17,78.79,17.22a2,2,0,0,0-1.63-.17c-3,1.33-6.06,2.74-9,4.2a1.62,1.62,0,0,0-.75,1.2c-.08,2.17,0,4.35,0,6.1,4.46,2.52,8.62,4.84,12.73,7.23C83.93,38,84.74,42,82.27,45.7a4.82,4.82,0,0,0-.6,2.17c-.39,4.21-.41,8.47-1.17,12.61a18.37,18.37,0,0,1-6.85,11.73,2.19,2.19,0,0,1-3.12-.08,2,2,0,0,1-.34-2.92c4.88-6.55,4-13.77,2.43-21A1.87,1.87,0,0,0,71.34,47a68.74,68.74,0,0,0-22.22,0,1.84,1.84,0,0,0-1.26,1.16c-.49,3.4-1,6.82-1.19,10.25a15.68,15.68,0,0,0,3.16,10c.9,1.27,1.32,2.5.1,3.74-1,1-2.37.78-3.84-.54C42,68,40.24,63.21,39.46,58.06c-.52-3.4-.44-6.88-.71-10.31A5,5,0,0,0,38,45.44c-2-3.07-1.6-7.06,1.46-9,4.26-2.72,8.75-5.1,13.57-7.87,0-1.1,0-2.78,0-4.45.06-3.54,1.68-5.29,5.17-5.83a10.66,10.66,0,0,0,2.56-1.12C64.9,15.24,69,13.34,73.1,11.37a3.05,3.05,0,0,0,1.41-1.43c1.54-3.93,5-5.18,8.63-3C90.1,11.1,97,15.3,104,19.48l17.42,10.46a1.49,1.49,0,0,0,.31.2c5,1.43,5.59,5,5.16,9.53-.74,8-1.08,16-1.63,24.06-.25,3.61-.58,7.2-.91,11.13,2.51,0,4.83,0,7.16,0,6,.06,5.24-.8,5.29,5.31,0,3,0,5.93,0,8.9a3.26,3.26,0,0,0,.19.6c1.53,0,3.14,0,4.76,0,1.45,0,2.07.5,2,2-.08,3,0,5.93,0,8.89,0,3.38-.35,3.66-4,3a18.73,18.73,0,0,0-6.25-15.18,18.21,18.21,0,0,0-12.57-4.87c-10.72,0-17.55,7.16-19.14,20.12a.37.37,0,0,1-.16.07c-6.42.12-5.32.55-5.41-5.13,0-2.24,0-4.48,0-6.72,0-1.61.53-2.36,2.21-2.26S101.53,89.67,103.26,89.67ZM61,31.48c-3.9-.08-7.25-.22-10.28,1.55s-6,3.46-8.91,5.23c-2,1.2-2.64,2.88-1.9,4.72s2.3,2.52,4.49,2.05a75.54,75.54,0,0,1,31.86,0c2.09.45,3.64-.28,4.37-2s.17-3.59-1.77-4.77-4-2.2-5.93-3.49C69.08,32.21,65,30.88,61,31.48Zm55.17,43.26h4.54c.78-11.48,1.55-22.87,2.33-34.26l-4.53.66C117.68,52.28,116.91,63.42,116.12,74.74ZM75.34,14.51c-1.06-.69-8.22,2.22-10.73,4.23C65.69,19.35,71.58,17.06,75.34,14.51Z"/><path class="cls-1" d="M195.64,105.84c1.63-14.42-9.55-22.29-18.72-22.33-8.75,0-20.47,7.48-18.84,22.33-3.69,0-7.37.07-11-.07a2.22,2.22,0,0,1-1.45-1.6c-.12-4.29-.07-8.58-.05-12.88,0-1.24.73-1.66,1.89-1.65,2.77,0,5.54,0,8.62,0a77.74,77.74,0,0,0-3.12-7.3c-2-3.53-2.31-7.29-2.27-11.18q.09-7.43.14-14.86c0-2.14.24-2.35,2.44-2.35,8.89,0,17.79,0,26.68,0a4.48,4.48,0,0,1,2.84,1.13q10.29,10.09,20.4,20.4a4.63,4.63,0,0,1,1.13,2.84c.13,3.67.05,7.36.05,11.31,1.23,0,2.3,0,3.37,0s1.81.42,1.8,1.69c0,4.23,0,8.47,0,12.7,0,1.06-.37,1.77-1.56,1.77ZM181,78.52c3.75,0,7.51,0,11.25,0a3.09,3.09,0,0,0,2.23-1c.27-.41-.2-1.57-.66-2.14-3.33-4.15-6.89-8.12-10.08-12.37-1.77-2.36-3.64-3.5-6.65-3.21s-6.16.1-9.24.2c-1.21,0-2.1.65-2,2,.45,4.75,1,9.48,1.36,14.22.14,1.65.84,2.38,2.51,2.36C173.53,78.48,177.28,78.51,181,78.52Z"/><path class="cls-2" d="M193.54,102.55a16.68,16.68,0,1,1-17-16.77A16.62,16.62,0,0,1,193.54,102.55Z"/><path class="cls-2" d="M137.31,102.55a16.68,16.68,0,1,1-17-16.77A16.62,16.62,0,0,1,137.31,102.55Z"/><path class="cls-1" d="M46.89,101.31a6.33,6.33,0,0,1,6.29-6.38,6.42,6.42,0,0,1,6.5,6.38,6.32,6.32,0,0,1-6.42,6.44A6.19,6.19,0,0,1,46.89,101.31Z"/><path class="cls-1" d="M45.58,81.4a6.23,6.23,0,0,1,6.22,6.4A6.41,6.41,0,1,1,39,87.64,6.32,6.32,0,0,1,45.58,81.4Z"/><path class="cls-1" d="M61.15,81.38a6.28,6.28,0,0,1,6.37,6.46,6.43,6.43,0,0,1-12.85-.08A6.33,6.33,0,0,1,61.15,81.38Z"/><path class="cls-1" d="M61.57,55.69A6.31,6.31,0,0,1,55.09,62a6.43,6.43,0,0,1-6.35-6.57,6.5,6.5,0,0,1,6.46-6.29A6.36,6.36,0,0,1,61.57,55.69Z"/><path class="cls-1" d="M37.28,107.72a6.35,6.35,0,0,1-6.18-6.67,6.44,6.44,0,0,1,12.86.52A6.26,6.26,0,0,1,37.28,107.72Z"/><path class="cls-1" d="M65.93,70.33a6.21,6.21,0,0,1-6.52,6.48,6.33,6.33,0,0,1-6.26-6.42C53.19,67,56,63.94,59.07,64,63.11,64,66,66.64,65.93,70.33Z"/><path class="cls-1" d="M68.79,107.73a6.24,6.24,0,0,1-6.22-6.6,6.41,6.41,0,1,1,12.8.55A6.26,6.26,0,0,1,68.79,107.73Z"/><path class="cls-1" d="M76.24,38.22a3.07,3.07,0,0,1,3.13,3,3.11,3.11,0,0,1-3.06,3.12,3,3,0,0,1-3-3A3,3,0,0,1,76.24,38.22Z"/><path class="cls-1" d="M47.12,41.36a2.84,2.84,0,0,1-3.13,3,3,3,0,0,1-2.85-3.12,3,3,0,1,1,6,.13Z"/><path class="cls-1" d="M170.43,75.16c-.36-4-.72-7.87-1.11-12.15,3.52,0,6.8,0,10.08,0,.28,0,.61.36.83.63,3.12,3.76,6.22,7.53,9.48,11.49Z"/></svg>