<svg id="Capa_1" data-name="Capa 1" xmlns="http://www.w3.org/2000/svg" viewBox="0 0 250 110.1"><defs><style>.cls-1{fill:#e20613;}.cls-2{fill:#1d1d1b;}</style></defs><path class="cls-1" d="M81.8,48.73A26.27,26.27,0,1,0,108.06,75,26.26,26.26,0,0,0,81.8,48.73Z"/><path class="cls-2" d="M166.32,63.35a19.12,19.12,0,1,0,19.12,19.12A19.13,19.13,0,0,0,166.32,63.35Zm0,29.86a10.74,10.74,0,1,1,10.74-10.74A10.74,10.74,0,0,1,166.32,93.21Z"/><path class="cls-2" d="M171,50.58c-3.64-3.25-14.82-5.2-24.57-6.32V32.78a3.2,3.2,0,0,1,3.14-3.32l-.31-5.17c-6.21.37-8,5.65-8,8.39v11c-6.35-.59-11.14-.81-11.14-.81L116.66,9.82H76.82l-3.89,25a9.74,9.74,0,0,0-6.52-2.07V43.34a26.18,26.18,0,0,0-6.61,4.82,2.58,2.58,0,1,0,3.69,3.62c4.82-4.92,11.93-6.3,12-6.31a2.94,2.94,0,0,0,.67-.23,29.93,29.93,0,0,1,5.63-.53A30.32,30.32,0,0,1,112.08,75c0,2.71,0,5.19,0,7.84h31.42c0-.12,0-.24,0-.36a22.82,22.82,0,0,1,29.57-21.78c.22-1.22.37-2.1.41-2.46C173.74,55.93,177.87,56.73,171,50.58ZM91.16,36.35H77.92V36.3L81.23,15h9.93Zm4.78.46V15h17.25l11.08,27.31Zm29.87,42.68h-8.16a1.86,1.86,0,1,1,0-3.71h8.16a1.86,1.86,0,1,1,0,3.71Zm0-6.45h-8.16a1.86,1.86,0,1,1,0-3.71h8.16a1.86,1.86,0,1,1,0,3.71Zm0-6.45h-8.16a1.86,1.86,0,1,1,0-3.71h8.16a1.86,1.86,0,1,1,0,3.71Z"/></svg>