<svg id="Capa_1" data-name="Capa 1" xmlns="http://www.w3.org/2000/svg" viewBox="0 0 250 118"><defs><style>.cls-1{fill:#1d1d1b;}.cls-2{fill:#e20613;}</style></defs><path class="cls-1" d="M50,74.52v5.23h87.34V74.52H125.4s13-13.32,13.24-47.75h16.3V21.55H134l-11.2,13-96.36-.2V55.17L52.75,74.52Z"/><path class="cls-1" d="M91.87,9.53a15.93,15.93,0,0,0-22.53,0L48.56,30.31h64.09Z"/><path class="cls-2" d="M56.91,83.85a14.7,14.7,0,1,0,14.7,14.7A14.7,14.7,0,0,0,56.91,83.85Z"/><path class="cls-2" d="M89.85,83.85a14.7,14.7,0,1,0,14.71,14.7A14.7,14.7,0,0,0,89.85,83.85Z"/><path class="cls-2" d="M196.37,83.85a14.7,14.7,0,1,0,14.7,14.7A14.71,14.71,0,0,0,196.37,83.85Z"/><path class="cls-1" d="M220.33,89.3v-22s-24.07-9.77-38-10.39c-4-10.3-7.8-20.87-7.8-20.87H142.65V93.77h-5.54c-.77-4.49-3.47-7.81-6.7-7.81H117.19c-3.23,0-5.93,3.32-6.7,7.81h-3.12a18,18,0,0,1,.66,4.78c0,.15,0,.3,0,.45h2.49c.77,4.49,3.47,7.82,6.7,7.82h13.22c3.23,0,5.93-3.33,6.7-7.82h5.54v5.84h35.07V98.55A18.64,18.64,0,0,1,215,97.29v7.55h8.66V89.3ZM171.9,100.67H148.22V92.1H171.9ZM148.22,59V41.61h22.43c1.47,4,4,10.74,6.49,17.3l0,.05Z"/></svg>