<svg id="Capa_1" data-name="Capa 1" xmlns="http://www.w3.org/2000/svg" viewBox="0 0 250 119.77"><defs><style>.cls-1{fill:#1d1d1b;}.cls-2{fill:#e20613;}</style></defs><path class="cls-1" d="M170.42,63.26l-9.33-14H137.56v12a31.78,31.78,0,0,1,32.86,2Z"/><path class="cls-2" d="M152.35,64.61a24.84,24.84,0,1,0,24.83,24.84A24.83,24.83,0,0,0,152.35,64.61Z"/><path class="cls-2" d="M77,64.61a24.84,24.84,0,1,0,24.83,24.84A24.84,24.84,0,0,0,77,64.61Z"/><polygon class="cls-1" points="212.93 105.95 209.58 105.95 196.14 69.7 191.19 69.7 184.18 76.71 184.18 104.93 191.19 111.94 215.15 111.94 212.93 105.95"/><path class="cls-1" d="M130.57,66.27V50L119.5,38.76h-5.26l-6.76-24.37h4a9.8,9.8,0,0,0-9.39-7H69.42V38.83H63.29V30.24a10,10,0,0,0-10-10v7a3,3,0,0,1,3,3v8.59H45.59a5.6,5.6,0,0,0-5.6,5.6v24.5H34.45V80.32l11.28,3.39A31.82,31.82,0,0,1,108.85,89h11.68A31.72,31.72,0,0,1,130.57,66.27ZM62.91,52.83H48.57v-7H62.91ZM92.64,38.76,85.9,31H76.42V14.39h23.8L107,38.76Zm26.45,21.91a4.41,4.41,0,1,1,4.41-4.41A4.41,4.41,0,0,1,119.09,60.67Z"/></svg>