<svg id="Capa_1" data-name="Capa 1" xmlns="http://www.w3.org/2000/svg" viewBox="0 0 250 73.75"><defs><style>.cls-1{fill:#1d1d1b;}.cls-2{fill:#e20613;}</style></defs><path class="cls-1" d="M111.16,17.91v44.4H129.3V17.91ZM112.49,21a1,1,0,0,1,1-1h13.55a1,1,0,0,1,1,1V31.35a1,1,0,0,1-1,1H113.53a1,1,0,0,1-1-1Z"/><path class="cls-1" d="M27,36V54.27H37.64A1.35,1.35,0,0,1,39,55.62v4.61H49.61a13.67,13.67,0,0,1-.14-1.92,14.62,14.62,0,1,1,29.24,0c0,.65-.06,3.36-.14,4H109.1V17.91a2.08,2.08,0,0,1,2.07-2.08H129.3a2.08,2.08,0,0,1,2.08,2.08v44.4h42.29c-.08-.64-.14-3.35-.14-4a14.63,14.63,0,1,1,29.25,0,15.36,15.36,0,0,1-.14,1.92H214V55.62a1.35,1.35,0,0,1,1.34-1.35h9.28V39.71h-2.75a1,1,0,0,1-1-1V19a1,1,0,0,1,1-1h2.75V15.16c0-6.22-42-6.22-42.53-6.22H34.17c-.33,0-2.64,1.83-4.54,7.51h8.45a1,1,0,0,1,1,1L36,34.83a1,1,0,0,1-1,1H27C27,35.93,27,36,27,36ZM211.57,17.48a1,1,0,0,1,1-1l3.6.69a1,1,0,0,1,1,1V41.05a1,1,0,0,1-1,1c-3.54,0-4.64-3.57-4.64-4.15Zm-17.41,0a1,1,0,0,1,1.05-1h12a1,1,0,0,1,1,1V34.83a1,1,0,0,1-1,1h-12a1,1,0,0,1-1.05-1Zm-52.8,17.35,2.08-17.35a1,1,0,0,1,1-1h38.2a1,1,0,0,1,1,1V34.83a1,1,0,0,1-1,1H142.39A1,1,0,0,1,141.36,34.83Zm-89.14,0,3.11-17.35a1,1,0,0,1,1-1H97.18a1,1,0,0,1,1,1V34.83a1,1,0,0,1-1,1H53.25A1,1,0,0,1,52.22,34.83Z"/><path class="cls-2" d="M176.86,57.62a11.68,11.68,0,1,0,11.68-11.69A11.69,11.69,0,0,0,176.86,57.62Z"/><path class="cls-2" d="M52.57,57.62A11.68,11.68,0,1,0,64.24,45.93,11.69,11.69,0,0,0,52.57,57.62Z"/><path class="cls-1" d="M26.14,61a1,1,0,0,0,1,1h9.1a1,1,0,0,0,1-1V56.33a1,1,0,0,0-1-1h-9.1a1,1,0,0,0-1,1Z"/><rect class="cls-1" x="215.62" y="55.29" width="11.18" height="6.78" rx="1.04"/><polygon class="cls-1" points="141.55 21.46 183.71 21.46 183.71 22.8 141.37 22.8 141.55 21.46"/><polygon class="cls-1" points="54.66 21.46 98.73 21.46 98.73 22.8 54.38 22.8 54.66 21.46"/></svg>