<svg id="Capa_1" data-name="Capa 1" xmlns="http://www.w3.org/2000/svg" viewBox="0 0 250 103.28"><defs><style>.cls-1{fill:#1d1d1b;}.cls-2{fill:#e20613;}</style></defs><path class="cls-1" d="M40.06,68.15a2,2,0,0,1,2.66,1.11,2,2,0,0,1-1.1,2.64c-.17.08-4.35,2.14-4.26,12,0,3.16,0,5.1,0,6.25,0,.41,0,.83,0,1.23,0,0,0,.08,0,.11h0c-.09,1.2-.48,2.18-2,2.21h0c-1.53,0-1.91-1.16-2-2.17h0v0a8.15,8.15,0,0,1,0-.82h0c0-.93,0-2.84,0-6.75a33.2,33.2,0,0,1,.16-3.58h-2V73.81h3.58C37,69.44,39.87,68.22,40.06,68.15Z"/><path class="cls-1" d="M41.58,83.91A14.58,14.58,0,1,0,56.16,69.33,14.58,14.58,0,0,0,41.58,83.91Zm5.41,0a9.17,9.17,0,1,1,9.17,9.17A9.18,9.18,0,0,1,47,83.91Z"/><path class="cls-1" d="M73.85,83.91A14.58,14.58,0,1,0,88.43,69.33,14.58,14.58,0,0,0,73.85,83.91Zm5.41,0a9.17,9.17,0,1,1,9.17,9.17A9.18,9.18,0,0,1,79.26,83.91Z"/><path class="cls-1" d="M175.47,83.91a14.58,14.58,0,1,0,14.58-14.58A14.58,14.58,0,0,0,175.47,83.91Zm5.41,0a9.17,9.17,0,1,1,9.17,9.17A9.17,9.17,0,0,1,180.88,83.91Z"/><path class="cls-2" d="M141.93,83.91a14.58,14.58,0,1,0,14.58-14.58A14.58,14.58,0,0,0,141.93,83.91Z"/><path class="cls-1" d="M108.55,69.1h27.78c.88,0,1.59,1.6,1.59,3.57V83.42c0,2-.71,3.57-1.59,3.57H108.55c-.87,0-1.58-1.6-1.58-3.57V72.67C107,70.7,107.68,69.1,108.55,69.1Z"/><path class="cls-1" d="M207.88,83.91c0,3.35-.77,6.72,1.6,6.72l14.94-1.57c1.35,0,2.38-4.5,2.38-5.84V26a2.43,2.43,0,0,0-2.44-2.43h-40.9c-.59,0-1.08.69-1.08,1.55V66.91h12.56c.19,0,.38,0,.56,0A17.86,17.86,0,0,1,207.88,83.91Zm-9.07-35V28.47h23.11V48.86Z"/><path class="cls-1" d="M30.3,58.34h132a2.32,2.32,0,0,0,2-1.61L176.37,19h0l2-5.68H193.7V7.63H174l-12.25,7.54H44.22a2.3,2.3,0,0,0-1.95,1.61L29.38,56.73C29.1,57.62,29.51,58.34,30.3,58.34Zm114.63-8.49,9.19-28.5h10.59l-9.19,28.5Zm-25.44,0,9.19-28.5h10.59l-9.19,28.5Zm-25.44,0,9.19-28.5h10.59l-9.19,28.5Zm-25.44,0,9.19-28.5H88.38L79.2,49.85Zm-25.44,0,9.19-28.5H62.94l-9.18,28.5Z"/><rect class="cls-1" x="45.19" y="61.29" width="130.28" height="3.66"/></svg>