<svg id="Capa_1" data-name="Capa 1" xmlns="http://www.w3.org/2000/svg" viewBox="0 0 150 50"><defs><style>.cls-1{fill:#e21c15;}</style></defs><path class="cls-1" d="M14.92,16.93l.19,5.14h-.72A5.05,5.05,0,0,0,11.91,19a8.26,8.26,0,0,0-4.28-1.18,5.5,5.5,0,0,0-2.81.62,1.75,1.75,0,0,0-1,1.43,1.28,1.28,0,0,0,.37.91A5.19,5.19,0,0,0,5.77,21.8c.54.25,1.8.69,3.78,1.33a18.68,18.68,0,0,1,5.59,2.51,3.44,3.44,0,0,1,1.43,2.71q0,1.93-2.31,3.33A11.17,11.17,0,0,1,8.4,33.07a14.16,14.16,0,0,1-2.11-.15,21.26,21.26,0,0,1-2.49-.56,5.52,5.52,0,0,0-1.38-.22,2.37,2.37,0,0,0-1,.22,2.05,2.05,0,0,0-.82.7H0V27.24H.64A6.47,6.47,0,0,0,3.6,31a9.12,9.12,0,0,0,4.71,1.29,6,6,0,0,0,3.11-.69A2,2,0,0,0,12.58,30a1.62,1.62,0,0,0-.44-1.05,4.62,4.62,0,0,0-1.35-1,27.86,27.86,0,0,0-3.21-1.2A32.59,32.59,0,0,1,3,25,6.86,6.86,0,0,1,.78,23.35a3,3,0,0,1-.76-2,3.71,3.71,0,0,1,2.07-3.14,9.66,9.66,0,0,1,5.23-1.3,13.52,13.52,0,0,1,2.23.18,14.62,14.62,0,0,1,2,.51,7,7,0,0,0,1.65.37,1.28,1.28,0,0,0,.72-.18,1.86,1.86,0,0,0,.48-.88Z"/><path class="cls-1" d="M32.85,28.32H24.5l-1,1.5A2.41,2.41,0,0,0,23,31.06c0,.43.27.75.8.95a10.46,10.46,0,0,0,2.32.28v.42H18.28v-.42a4.53,4.53,0,0,0,2.09-.69,9.19,9.19,0,0,0,2-2.33L30.84,17h.33L39.7,29.61a8.08,8.08,0,0,0,2,2.27,3.74,3.74,0,0,0,1.67.41v.42H31.94v-.42h.47A5.43,5.43,0,0,0,34.35,32a.59.59,0,0,0,.38-.53,1,1,0,0,0-.11-.42,7,7,0,0,0-.52-.85Zm-.59-.85-3.53-5.31-3.62,5.31Z"/><path class="cls-1" d="M60.78,27.45l6.41-10.17h9.62v.42h-.76a4.83,4.83,0,0,0-1.68.24,1.42,1.42,0,0,0-.69.54,3,3,0,0,0-.2,1.42V30.07a3.33,3.33,0,0,0,.2,1.48,1.53,1.53,0,0,0,.78.51,4.53,4.53,0,0,0,1.59.23h.76v.42H64.47v-.42h.77a4.73,4.73,0,0,0,1.67-.24,1.41,1.41,0,0,0,.7-.55,3.11,3.11,0,0,0,.19-1.43V18.64L58.74,32.71h-.42l-9.2-14V29.6a6.08,6.08,0,0,0,.09,1.4,1.83,1.83,0,0,0,1,.93,5.89,5.89,0,0,0,2.38.36v.42H44.49v-.42h.24a5.81,5.81,0,0,0,1.47-.17,2.55,2.55,0,0,0,1-.47,1.82,1.82,0,0,0,.54-.83,7.55,7.55,0,0,0,0-1.16V19.9a3.43,3.43,0,0,0-.19-1.46,1.5,1.5,0,0,0-.79-.51,4.51,4.51,0,0,0-1.58-.23h-.75v-.42h9.65Z"/><path class="cls-1" d="M94.22,16.93l.19,5.14H93.7A5.1,5.1,0,0,0,91.21,19a8.22,8.22,0,0,0-4.27-1.18,5.51,5.51,0,0,0-2.82.62,1.74,1.74,0,0,0-1,1.43,1.31,1.31,0,0,0,.36.91,5.45,5.45,0,0,0,1.62,1.06c.55.25,1.81.69,3.78,1.33a18.77,18.77,0,0,1,5.6,2.51,3.47,3.47,0,0,1,1.43,2.71q0,1.93-2.31,3.33a11.21,11.21,0,0,1-5.87,1.39,14.26,14.26,0,0,1-2.11-.15,21.26,21.26,0,0,1-2.49-.56,5.46,5.46,0,0,0-1.37-.22,2.3,2.3,0,0,0-1,.22,2,2,0,0,0-.82.7H79.3V27.24H80a6.41,6.41,0,0,0,3,3.74,9.13,9.13,0,0,0,4.72,1.29,6.07,6.07,0,0,0,3.11-.69A2,2,0,0,0,91.89,30a1.58,1.58,0,0,0-.45-1.05,4.62,4.62,0,0,0-1.35-1,26.44,26.44,0,0,0-3.21-1.2A32.59,32.59,0,0,1,82.25,25a7,7,0,0,1-2.17-1.62,3,3,0,0,1-.76-2,3.7,3.7,0,0,1,2.08-3.14,9.62,9.62,0,0,1,5.22-1.3,13.52,13.52,0,0,1,2.23.18,14.71,14.71,0,0,1,2,.51A6.81,6.81,0,0,0,92.5,18a1.22,1.22,0,0,0,.71-.18,1.85,1.85,0,0,0,.49-.88Z"/><path class="cls-1" d="M111.09,17.07a15.83,15.83,0,0,1,9.17,2.15c2.36,1.52,3.53,3.43,3.53,5.72a6.63,6.63,0,0,1-2.63,5.16q-3.48,3-9.85,3t-9.86-2.82A6.65,6.65,0,0,1,98.7,25q0-3.43,3.58-5.73A15.24,15.24,0,0,1,111.09,17.07Zm.21.72A5.88,5.88,0,0,0,106.37,20,8.14,8.14,0,0,0,105,25.05q0,3.94,2.13,5.84a6,6,0,0,0,4.14,1.32,7,7,0,0,0,3-.57,5.23,5.23,0,0,0,2.39-2.33,8.8,8.8,0,0,0,.85-4.17,9.48,9.48,0,0,0-.87-4.58,5,5,0,0,0-2.22-2.14A7.29,7.29,0,0,0,111.3,17.79Z"/><path class="cls-1" d="M134,17.28l11.66,9.57V20.22a2.31,2.31,0,0,0-.61-1.88,4.55,4.55,0,0,0-2.81-.64v-.42H150v.42a9,9,0,0,0-2,.33,1.56,1.56,0,0,0-.8.65,2.92,2.92,0,0,0-.29,1.54V33.06h-.59l-16-12.84V30a1.82,1.82,0,0,0,.93,1.8,4.7,4.7,0,0,0,2.13.47H134v.42h-8.38v-.42a5.28,5.28,0,0,0,2.72-.53,1.93,1.93,0,0,0,.76-1.74V19.14l-.5-.41a4.51,4.51,0,0,0-1.32-.81,6,6,0,0,0-1.66-.22v-.42Z"/></svg>