<svg id="Capa_1" data-name="Capa 1" xmlns="http://www.w3.org/2000/svg" viewBox="0 0 150 50"><defs><style>.cls-1{fill:red;}.cls-2,.cls-3{stroke:#000;stroke-miterlimit:10;}.cls-2{stroke-width:0.3px;}.cls-3{stroke-width:0.32px;}</style></defs><path class="cls-1" d="M20.67,18.25a22.17,22.17,0,0,1,3.95-6.47,15.28,15.28,0,0,1,6.11-4.22,9.2,9.2,0,0,1,3.5-.6,17.47,17.47,0,0,1,4.07.59,7.79,7.79,0,0,0-3.62-2.72,8.36,8.36,0,0,0-4.84-.35,16.5,16.5,0,0,0-4.37,1.64,17.75,17.75,0,0,0-3.8,2.76,21.21,21.21,0,0,0-3,3.57,26.45,26.45,0,0,0-2,3.57l-3-6L10,11.13c.23-.4.47-.79.72-1.18s.6-.9.92-1.35L12.16,8c.17-.22.35-.42.52-.63A25.26,25.26,0,0,1,15,5a20,20,0,0,1,5.67-3.73,7.39,7.39,0,0,0-1.82,0A11.35,11.35,0,0,0,17,1.54a15.13,15.13,0,0,0-3.47,1.35,21.21,21.21,0,0,0-5.8,4.74A28.49,28.49,0,0,0,3.6,13.86c-.53,1.11-1,2.25-1.44,3.4A35.46,35.46,0,0,0,1.05,20.8a34.55,34.55,0,0,0-.74,3.67A26.52,26.52,0,0,0,0,28.25,22.6,22.6,0,0,0,1.16,35.8a20.64,20.64,0,0,0,3.7,6.63A13.66,13.66,0,0,0,7.66,45a9.32,9.32,0,0,0,3.43,1.49c-.7-1-1.33-2-1.93-3S8,41.55,7.49,40.6a21.36,21.36,0,0,1-2.27-6,26,26,0,0,1-.41-8.21l4-2,4.51,6.89a25.33,25.33,0,0,0,.14,2.75,19.65,19.65,0,0,0,3.07,8.81,14.24,14.24,0,0,0,3.27,3.53,11.49,11.49,0,0,0,4.32,2.09,10.49,10.49,0,0,0,2.35.29,11.62,11.62,0,0,0,2.29-.22,11.44,11.44,0,0,0,4-1.69,12,12,0,0,1-7.8-.85,11.07,11.07,0,0,1-4.82-5.27,22,22,0,0,1-1.84-7.2,28.68,28.68,0,0,1,.28-7.72A35.87,35.87,0,0,1,20.67,18.25ZM7.75,15.75c.22-.5.44-1,.66-1.5l4.68-1.78L15.87,18c-.34.88-.64,1.78-.9,2.68-.18.6-.34,1.2-.49,1.79l-3.24-5.73L6.48,19.15c0-.1.07-.21.11-.31C6.94,17.79,7.34,16.76,7.75,15.75ZM9.4,22.92,5.09,24.44q.23-1.23.54-2.46c.08-.31.17-.63.26-.94L10,19.23,13.94,25V25a32.74,32.74,0,0,0-.55,4Z"/><path class="cls-2" d="M30.72,14.69l-1,7.2h4.88l1-7.2h2.87L35.92,33.14H33.05l1.06-7.75H29.25l-1.08,7.75H25.31l2.55-18.45Z"/><path class="cls-2" d="M50.94,22.08a15.23,15.23,0,0,1-2.39,8.7,6.12,6.12,0,0,1-5,2.66c-3.49,0-5.44-3.4-5.44-7.69A15.12,15.12,0,0,1,40.62,17a6.15,6.15,0,0,1,4.9-2.62C49.06,14.39,50.94,17.67,50.94,22.08Zm-8.07-3c-1.08,1.45-1.67,4.32-1.67,6.54,0,2.6.85,4.54,2.81,4.54a3,3,0,0,0,2.25-1.34c1.05-1.45,1.63-4.49,1.63-6.62,0-2.3-.6-4.52-2.71-4.52A2.87,2.87,0,0,0,42.87,19.07Z"/><path class="cls-2" d="M50.62,33.14l2.55-18.45h3.36l1.77,7c.54,2.36.9,4.27,1.22,6.3h.06a60.5,60.5,0,0,1,.62-6.63l.91-6.7h2.67L61.25,33.14h-3l-1.87-7.37c-.6-2.49-.95-4.16-1.31-6.43l-.06,0c-.16,1.78-.48,4.41-.88,7.31l-.87,6.46Z"/><path class="cls-2" d="M76.25,22.08a15.23,15.23,0,0,1-2.39,8.7,6.12,6.12,0,0,1-5,2.66c-3.49,0-5.44-3.4-5.44-7.69A15.12,15.12,0,0,1,65.93,17a6.17,6.17,0,0,1,4.9-2.62C74.37,14.39,76.25,17.67,76.25,22.08Zm-8.07-3c-1.07,1.45-1.67,4.32-1.67,6.54,0,2.6.85,4.54,2.81,4.54a3,3,0,0,0,2.25-1.34c1.05-1.45,1.63-4.49,1.63-6.62,0-2.3-.6-4.52-2.71-4.52A2.88,2.88,0,0,0,68.18,19.07Z"/><path class="cls-2" d="M81.29,14.69,79.81,25.31a14.31,14.31,0,0,0-.14,2.19c0,1.48.66,2.62,2,2.62,1.5,0,2.49-1.36,3-4.78l1.47-10.65h2.87L87.48,25.17c-.78,5.58-2.57,8.27-6.21,8.27-2.77,0-4.47-1.95-4.47-5.89A19.67,19.67,0,0,1,77,25l1.42-10.29Z"/><path class="cls-2" d="M90.51,15a12.18,12.18,0,0,1,3.58-.49,5.44,5.44,0,0,1,3.52,1.07,4.42,4.42,0,0,1,1.5,3.61,5.31,5.31,0,0,1-3,5.2v.11c.8.47,1.14,1.7,1.28,3.37a43.72,43.72,0,0,0,.51,5.23H94.91a40.67,40.67,0,0,1-.4-4.36c-.12-2.24-.68-2.92-1.81-2.92h-.88l-1,7.28H88Zm1.73,7.86h1.19a2.81,2.81,0,0,0,2.69-3.09,1.93,1.93,0,0,0-2.05-2.14,3.53,3.53,0,0,0-1.12.14Z"/><path class="cls-3" d="M109,17.87h-3.65l.51-3.49h10.28l-.49,3.49h-3.7l-2.11,15.19h-3Z"/><path class="cls-3" d="M118.55,33.06l1.07-7.62-2.69-11.06h3.16l.88,4.74c.25,1.55.39,2.44.53,3.38h0c.41-1,.82-2.05,1.41-3.41L125,14.38h3.53l-6,11-1.09,7.71Z"/><path class="cls-3" d="M129.83,14.74a12.63,12.63,0,0,1,3.7-.5,5.7,5.7,0,0,1,3.63,1.08A4.46,4.46,0,0,1,138.7,19a5.37,5.37,0,0,1-3.14,5.26v.11c.82.48,1.17,1.72,1.31,3.41a43.82,43.82,0,0,0,.53,5.3h-3a37.92,37.92,0,0,1-.41-4.41c-.13-2.27-.7-3-1.87-3h-.9l-1,7.37h-2.93Zm1.79,8h1.23a2.86,2.86,0,0,0,2.77-3.13,2,2,0,0,0-2.11-2.16,3.38,3.38,0,0,0-1.15.14Z"/><path class="cls-3" d="M148.17,25.13h-4.92l-.64,4.52h5.52l-.47,3.41h-8.47l2.62-18.68H150l-.49,3.41H144.3l-.58,4h4.93Z"/></svg>