<svg id="Capa_1" data-name="Capa 1" xmlns="http://www.w3.org/2000/svg" viewBox="0 0 150 50"><defs><style>.cls-1{fill:#ffe600;}.cls-2{fill:#00509d;}.cls-3{fill:#1d1d1b;}.cls-4{fill:#fff;}</style></defs><polygon class="cls-1" points="126.97 36.97 6.37 36.97 5.4 39.63 125.99 39.63 126.97 36.97"/><path class="cls-2" d="M77.33,21.12c-3.12.64-7.35,2.93-7.3,7.12,0,2.41,2.94,3.75,6.28,3.66a26.62,26.62,0,0,0,3.89-.44l1.24-3.22c-1.64.26-3.22.65-4.46.16-2.23-.89-.85-3.21.72-3.93a6.36,6.36,0,0,1,2.78-.6,2.09,2.09,0,0,1,2.07,1.05l1.56-3.74A16,16,0,0,0,77.33,21.12ZM94.25,21l-1.42,3.83H90.24L91.65,21H86.74L82.83,31.66h4.9l1.34-3.6h2.6l-1.34,3.6h4.9L99.15,21ZM65,21,61.09,31.66h5.15L70.16,21ZM54.76,21,51,26.74s.24-3,.3-3.71c.05-.55,0-2-1.35-2H44L40.05,31.66h4.67L47.56,24l-.6,7.7h4.15L56.2,24.1l-2.78,7.56h4.7L62,21Zm90.93,0L143,28.32c0-.74.19-3.64.28-5.32a2.1,2.1,0,0,0-.44-1.56,1.47,1.47,0,0,0-.94-.43h-6L132,31.66h4.35l2.78-7.54-.33,7.54h7.29L150,21Zm-18,0-3.91,10.63h5.16L132.85,21Zm-21.8,2.77h5.88l1-2.79H102.06L98.14,31.65H109l1.06-2.87h-6l.44-1.18h5.6l1-2.62h-5.59ZM120.67,21h-5l-3.92,10.65h10.07l1.3-3.54h-5.06Z"/><path class="cls-3" d="M.85,17.24v0l.08.19A22.3,22.3,0,0,0,2,19.73a6.84,6.84,0,0,0,.78,1.15,4.14,4.14,0,0,0-.62,1.37,4.23,4.23,0,0,0,.19,2.23,4.53,4.53,0,0,0,.43.92h0a.19.19,0,0,0,0,.08,4.35,4.35,0,0,0,1.77,4,4.77,4.77,0,0,0,.65.41,3.35,3.35,0,0,0,1.14,1.58,4.92,4.92,0,0,0,1.29.71h0a3.9,3.9,0,0,0,2.2,1.49,4.61,4.61,0,0,0,.72.15l0,0a4.13,4.13,0,0,0,1.73,1A4.42,4.42,0,0,0,12.5,37H38a4.61,4.61,0,0,0-.67-2.43l0,0a4.86,4.86,0,0,0-3.87-5.41,2.63,2.63,0,0,0-.39-.06H33a10.52,10.52,0,0,0-3.15-2.12c0-.07,0-.14,0-.19l.05,0a3.77,3.77,0,0,0,2.39-3,4.35,4.35,0,0,0-.76-3v0A6.26,6.26,0,0,0,30.92,17a4.4,4.4,0,0,0-2-1.88h0a2.27,2.27,0,0,0-2.24-1.32,2.46,2.46,0,0,0-2.05,1,5.78,5.78,0,0,0-3.78,4.56A3.9,3.9,0,0,0,20,24.85a3.79,3.79,0,0,0,.31.37,18.12,18.12,0,0,0-3.6.39h0a4.94,4.94,0,0,0-4-.79.35.35,0,0,0-.15.07,7.25,7.25,0,0,0-1.23-.25h-.08a4,4,0,0,0-1-1.66l-.08-.07h0a9.06,9.06,0,0,0-.25-1.15A3.37,3.37,0,0,0,9,20.23a3.43,3.43,0,0,0-1.06-.74A2,2,0,0,0,8,19.14a.28.28,0,0,0,0-.09s.15-1.44.32-2.28v0c.47-2.9.47-2.95.48-3h0A.94.94,0,0,0,8.59,13a1.24,1.24,0,0,0-.93-.38,1.49,1.49,0,0,0-1.27.73,3.76,3.76,0,0,0-.38.87c-.48-.94-1.11-2.16-1.56-3.06l0,0a1.2,1.2,0,0,0-1-.57,1.32,1.32,0,0,0-.44.08,1.19,1.19,0,0,0-.79-.28,1.29,1.29,0,0,0-.43.07,1.17,1.17,0,0,0-.8,1.17,1.13,1.13,0,0,0-.75.87,1.34,1.34,0,0,0,0,.63.51.51,0,0,0,0,.09l0,.05c-.29.45-.44,1.27.64,4"/><path class="cls-4" d="M37.2,37h-1a4.82,4.82,0,0,0,.79-1.3A3.78,3.78,0,0,1,37.2,37"/><path class="cls-4" d="M20.58,26.05a2.53,2.53,0,0,1,.6.11c.38.14,1.12.86,1.52.92.07,0,.26,0,.06-.18s-.53-.46-.35-.67h0a.21.21,0,0,1,.23-.09,10.76,10.76,0,0,0,1.24.25.31.31,0,0,0,.22,0s0-.07-.1-.1a7.87,7.87,0,0,1-2.6-1.15,3.23,3.23,0,0,1-1.29-3,3.09,3.09,0,0,1,1.21-2.08,3.31,3.31,0,0,1,.83-.39c.32-.11-.21-.2-.25-.21s-.15-.16,0-.59A4.84,4.84,0,0,1,25,15.58a4.21,4.21,0,0,1,.72-.18c.31-.05.19-.19-.17-.24,0,0-.12,0-.06-.08a.69.69,0,0,1,.18-.16,2.13,2.13,0,0,1,1-.3c.74,0,1.38.39,1.45.77a.06.06,0,0,1-.06.08c-.14,0-.26.07-.06.16,0,0,.24.09.52.21l0,0c.56.26,2.29,1.32,2.16,4.3h0c0,.09,0,.18,0,.27l0,.24c-.16,0-.24,0-.12.17a3.07,3.07,0,0,1,.41.54,3.65,3.65,0,0,1,.49,2.29,2.86,2.86,0,0,1-1.46,2.1,7,7,0,0,1-1.83.69c-.17,0-.09.27.71.26.07,0,.22,0,.26.09s-.06.52-.42.72-.06.22.36.09a1.61,1.61,0,0,1,.49.13,9.59,9.59,0,0,1,3.69,2.93c.89,1.28,1.22,2.29.94,2.93a1.46,1.46,0,0,1-1.09.73h0c-3.12.48-8.53-.37-12.27-1.47A24.09,24.09,0,0,1,18.4,32a5.25,5.25,0,0,0-.85-5.57l-.05-.06a17.5,17.5,0,0,1,3.07-.25"/><path class="cls-4" d="M35.85,31.6a4,4,0,0,1-.72,5.3,3.49,3.49,0,0,0-.66-2.29,1.83,1.83,0,0,0,.56-.7c.41-.92.07-2.18-1-3.74h0l-.07-.09a4,4,0,0,1,1.92,1.52"/><path class="cls-4" d="M16.94,26.9a4.35,4.35,0,0,1,.5,5.09,4.43,4.43,0,0,1-4.79,2.13,4.93,4.93,0,0,1-.73-.27A4.48,4.48,0,0,0,15.7,29.7a4.68,4.68,0,0,0-.95-3.37,4.37,4.37,0,0,0-.89-.83,4.16,4.16,0,0,1,3.08,1.4"/><path class="cls-4" d="M14.11,26.85a3.87,3.87,0,0,1,.77,2.77A3.79,3.79,0,0,1,12.21,33,3.93,3.93,0,0,1,9,32.48a4.4,4.4,0,0,0,4-3A4.14,4.14,0,0,0,13,26.78a3.72,3.72,0,0,0-.61-1.08,3.49,3.49,0,0,1,1.72,1.14"/><path class="cls-4" d="M11.37,26.89a4.77,4.77,0,0,0,.08-1,3.25,3.25,0,0,1,.82,3.33,3.48,3.48,0,0,1-3.95,2.36,3.63,3.63,0,0,1-2-1.23,3.94,3.94,0,0,0,.9.1,4.21,4.21,0,0,0,1.68-.35,4.33,4.33,0,0,0,2.47-3.21"/><path class="cls-4" d="M10.14,24.15h0a3.63,3.63,0,0,1,.41,2.58A3.4,3.4,0,0,1,5,28.87a3.61,3.61,0,0,1-1.47-2.51h0l.26.21a3.93,3.93,0,0,0,2.3.71,4,4,0,0,0,1.08-.14,4,4,0,0,0,2.59-2,3.82,3.82,0,0,0,.35-1"/><path class="cls-4" d="M.91,13.67l0,0a.21.21,0,0,1,.1-.06h.14l.08,0c.24.09.41.38.47.81a4.75,4.75,0,0,0,.74,2,.18.18,0,0,0,.29-.21,4.59,4.59,0,0,1-.68-1.86,1.23,1.23,0,0,0-.7-1.09.58.58,0,0,0-.26,0A1.45,1.45,0,0,1,1,12.94c0-.16-.11-.46.23-.58l.07,0h0c.25,0,.57.09.89,1.24a9.21,9.21,0,0,0,1,2.13.18.18,0,0,0,.25,0,.17.17,0,0,0,0-.22,9,9,0,0,1-.95-2,2.76,2.76,0,0,0-.67-1.32l-.12-.3c-.05-.17-.11-.55.21-.65a.39.39,0,0,1,.18,0,.51.51,0,0,1,.45.38s0,0,0,.08l1.46,3.5a.13.13,0,0,0,0,.06.16.16,0,0,0,.23,0,.19.19,0,0,0,0-.18L3,11.62a.3.3,0,0,1,.16-.17.62.62,0,0,1,.23-.07.39.39,0,0,1,.33.18S5.62,15.28,6,15.92a3.45,3.45,0,0,0-.28.54c0,.1,0,.18.09.09a5.85,5.85,0,0,1,.38-.49h0s0,0,0,0,.37-.9.48-1.13a3.88,3.88,0,0,1,.41-1.09.68.68,0,0,1,.59-.35c.21,0,.38.11.38.22s-.47,2.92-.47,2.92c-.12.6-.22,1.46-.28,2,0,.12,0,.24,0,.36v0a.23.23,0,0,1,0,.07A3.44,3.44,0,0,1,7,19.8l.15.68h0c.06.29.13.6.15.69.11.39,0,.62,0,.7s.34-.41.4-.68a2.77,2.77,0,0,0-.1-1,3,3,0,0,1,.81.56A2.57,2.57,0,0,1,9.13,22a7.24,7.24,0,0,1,.28,1.37,3.08,3.08,0,0,1-2.43,3,3.56,3.56,0,0,1-.86.11,3,3,0,0,1-1.82-.57A3.74,3.74,0,0,1,3,22.44a3.37,3.37,0,0,1,.44-1,1.66,1.66,0,0,0,.33.15l.06.32a2.59,2.59,0,0,0,.53,1.19,1.17,1.17,0,0,0,.63.17c.1,0,.35,0,.38-.12a.09.09,0,0,0,0-.11A.39.39,0,0,0,5.21,23c-.16-.09-.47-.26-.54-.56s-.17-.76-.26-1.12c.35-.27.39-.57-.06-.47a.9.9,0,0,1-.72-.23c-.91-.79-1.84-3.21-2-3.64C.83,15,.67,14,.91,13.66"/><path class="cls-4" d="M13.12,35a4.24,4.24,0,0,0,.51,0A5.37,5.37,0,0,0,18,32.64a21.4,21.4,0,0,0,2.67,1A44,44,0,0,0,27.29,35a29.92,29.92,0,0,0,3.79.27,13.61,13.61,0,0,0,2.21-.15,3,3,0,0,0,.43-.1A2.55,2.55,0,0,1,34.29,37H13.39A3.32,3.32,0,0,1,13.12,35"/><path class="cls-3" d="M24.27,22.11c0-.07-.11-.07-.14-.07a.75.75,0,0,0-.26.05.63.63,0,0,0-.37.49.09.09,0,0,0,0,.06.11.11,0,0,0,.07,0h0a.07.07,0,0,0,.07-.07.38.38,0,0,1,.08-.17.81.81,0,0,1,.42-.19s.11,0,.09-.12"/><path class="cls-3" d="M27.53,23.8a1.89,1.89,0,0,1-.71.07,2.07,2.07,0,0,1-.69-.18,2,2,0,0,1-.61-.46,7.46,7.46,0,0,0,2.62.23,1.74,1.74,0,0,1-.61.34m1.86-1.14c-.08,0-.11.06-.07.09l0,0-.08.05a2.72,2.72,0,0,1-.63.2,5.35,5.35,0,0,1-1.6.09,8.46,8.46,0,0,1-2.57-.61l-.21-.09-.11-.06h0a.19.19,0,0,0-.23.11s0,0,0,.05a.2.2,0,0,0,.13.19,5.72,5.72,0,0,0,.68.28,1.61,1.61,0,0,1,.5.43,3.31,3.31,0,0,0,.62.5,2.34,2.34,0,0,0,1.49.26,1.91,1.91,0,0,0,.72-.27,3.79,3.79,0,0,0,.45-.34l.28-.19a7,7,0,0,0,.67-.32c0,.08,0,.14,0,.15s.11-.09.13-.18a.42.42,0,0,0,0-.22.26.26,0,0,0-.2-.14"/><path class="cls-3" d="M24.55,19.67c0-.33.22-1.37,1.05-1.29a.91.91,0,0,1,.85.94v.05a1.93,1.93,0,0,1-.13.95,1.59,1.59,0,0,1-.15.29.77.77,0,0,1-.51.4h0a1.22,1.22,0,0,0,.54-1c.06-.62-.24-1.15-.65-1.18a.64.64,0,0,0-.54.25.37.37,0,0,1,.27.45.38.38,0,0,1-.25.27.31.31,0,0,1-.28-.24,1.65,1.65,0,0,0-.06.32,1.34,1.34,0,0,0,.24.93.23.23,0,0,1-.07-.07,1.33,1.33,0,0,1-.26-.69,1.79,1.79,0,0,1,0-.4m.1,1.24a.81.81,0,0,0,.34.24,1.51,1.51,0,0,0,.37.07l.33,0c.51,0,1-.81,1-1.58s-.08-1.24-.59-1.55a.48.48,0,0,0-.16-.08,1.16,1.16,0,0,0-.69,0,1,1,0,0,0-.6.49,2.61,2.61,0,0,0-.29.78,2.31,2.31,0,0,0,0,.83,1.71,1.71,0,0,0,.31.81"/><path class="cls-3" d="M29.7,20.36a1.82,1.82,0,0,1-.11.38,1.39,1.39,0,0,1-.42.59.52.52,0,0,1-.23.1,1.26,1.26,0,0,0,.51-1c.05-.61-.23-1.15-.64-1.18a.67.67,0,0,0-.53.26.37.37,0,0,1,0,.72A.29.29,0,0,1,28,20a1.55,1.55,0,0,0-.06.31,1.37,1.37,0,0,0,.28,1,.84.84,0,0,1-.3-.48c0-.11-.05-.21-.07-.32A1.89,1.89,0,0,1,28,19.6v-.05a.91.91,0,0,1,1-.69c.8.13.71,1.17.66,1.5m.2-1.16a1,1,0,0,0-.44-.62,1.15,1.15,0,0,0-.65-.14l-.18,0c-.55.18-.77.67-.94,1.34s.08,1.61.55,1.76l.31.07a1.45,1.45,0,0,0,.36,0,.73.73,0,0,0,.38-.14,1.74,1.74,0,0,0,.5-.7A2.49,2.49,0,0,0,30,20a2.45,2.45,0,0,0-.07-.81"/></svg>