<svg id="Capa_1" data-name="Capa 1" xmlns="http://www.w3.org/2000/svg" viewBox="0 0 150 50"><defs><style>.cls-1{fill:#e42917;}</style></defs><path d="M66.09,26.09l-1.41,5.36c-.29,0-.71.12-1.24.12-2.76,0-2.47-.94-1.29-5.48,1.18-4.77,2-5.71,3.71-5.71S67.57,21.56,67,23h4.35c.65-2.83.12-5.18-4.77-5.18-5.53,0-7.12,1.18-8.83,8.24-1.76,6.42-1.23,8.13,4.89,8.13a20.88,20.88,0,0,0,5.65-.53l2.12-7.6"/><path d="M76.28,31.27c-.53,0-.77-.11-.65-.53l1.06-3.82H82.4l.65-2.54H77.22l.65-2.53a1.64,1.64,0,0,1,1.59-1.23h4.65l.65-2.54H78.05c-2.83,0-3.6.53-4.65,4.66l-2,7.65c-.53,2.65.12,3.71,2.24,3.71h5.71a2.2,2.2,0,0,0,2.24-1.47l.53-1.36"/><path d="M141.7,31.27c-.53,0-.83-.11-.71-.53l.94-3.82h5.71l.65-2.54h-5.71l.71-2.53a1.47,1.47,0,0,1,1.59-1.23h4.47l.65-2.54h-6.59c-2.77,0-3.6.53-4.66,4.66l-2,7.65c-.65,2.65.18,3.71,2.3,3.71h5.65a2.16,2.16,0,0,0,2.24-1.47l.41-1.36"/><path d="M47.61,31.45H46.37L49.2,20.62h1.29c2.53,0,2.53.82,1.36,5.47S50,31.45,47.61,31.45m3.71-13.37H45.49l-4,15.49c0,.24.12.53.41.53h5c6.54,0,7.54-1.18,9.3-8C57.79,20.09,56.85,18.08,51.32,18.08Z"/><path d="M131.22,18.08H125.5l-3.94,15.49c-.12.24,0,.53.24.53h3.88l3.42-13.48h1.47c1.82,0,2.12.7,1.59,2.53l-2.65,10.42c-.12.24.12.53.41.53h3.65l3-11c.94-3.71-.65-5.07-5.3-5.07"/><path d="M98.13,18.08l-.65,2.71h4.24a5.36,5.36,0,0,0-1.36,1.95L97.6,33.57c0,.24.11.53.41.53h4.12l3.41-13.31h2.12a2.21,2.21,0,0,0,2.24-1.65l.41-1.06"/><path d="M38.72,34.1l3.94-15.49c0-.23-.12-.53-.35-.53h-4L34.24,33.57c0,.24.12.53.35.53"/><path d="M113.38,31.69c-1.89,0-2.12-.65-.83-5.72,1.06-4.12,2.12-5.59,3.71-5.59,1.89,0,2,1.06.83,5.59s-2.3,5.72-3.71,5.72m3.53-13.84c-4.89,0-6.89.94-8.83,8.24-1.59,6.42-.3,8.25,4.59,8.25,5.06,0,6.89-1.06,8.77-8.25C122.74,20.91,122.5,17.85,116.91,17.85Z"/><path class="cls-1" d="M2.44,26.21,5,17.44a2.38,2.38,0,0,1,2.23-1.77h7.54c.12,0,.29.18.12.29A77,77,0,0,0,2.74,26.39c-.18.11-.3,0-.3-.18"/><path d="M8.57,31.57l2.35-8.66a.45.45,0,0,0-.12-.29A90.66,90.66,0,0,0,.09,33.81C0,34,0,34.1.09,34.1H10.8c4.48,0,6.89-1.35,7.78-4.83a3.81,3.81,0,0,0-2.89-5.06h0c1.83-.36,3.83-1.18,4.48-4,.82-3.06-1.59-4.65-4.24-4.53L11.86,30.1A2,2,0,0,1,10,31.57"/><path d="M31.59,27.68c-.18-.53-.29-.76-.41-1.06-.12-.12-.12-.12,0-.12a5,5,0,0,0,3.41-3.76c.71-2.54-.88-4.66-5-4.66H23.52l-4,15.49a.35.35,0,0,0,.29.53h3.83l3.42-13.48h1.59c1.59,0,2.12.94,1.7,2.12a3,3,0,0,1-3.12,2.53H26.7L28.23,33c.3.77.53,1.06,1.48,1.06h3.47"/><path d="M83.58,28.62c-1.59,4,.53,5.72,4.89,5.72,3.83,0,6.06-.89,7-4.54a3.75,3.75,0,0,0-.65-3.41c-1.47-1.65-4.36-1.89-5.3-2.83a1.74,1.74,0,0,1-.41-1.71,2.08,2.08,0,0,1,2.12-1.65c1.76,0,1.88,1.12,1.47,2.42h3.71c.94-2.77-.3-4.95-4.77-4.95-3.71,0-5.83,1.65-6.48,4.42a3.48,3.48,0,0,0,.41,2.82c.89,1.83,3.71,2.12,5.3,3.07a1.54,1.54,0,0,1,.36,1.82,2,2,0,0,1-2.24,2c-1.3,0-2.12-.76-1.3-3.18"/></svg>