<svg id="Capa_1" data-name="Capa 1" xmlns="http://www.w3.org/2000/svg" viewBox="0 0 150 50"><defs><style>.cls-1{fill:#1fa238;}.cls-2{fill:#fff;}</style></defs><path class="cls-1" d="M95,42.59a1.05,1.05,0,0,1-1-1.19l0-.22a1,1,0,0,1,1-.92h.24c0-.07,0-.17,0-.3l.45-4.72a1.66,1.66,0,0,0-.58.78,1.06,1.06,0,0,1-1,.63h-.28a1,1,0,0,1-1-1.15l.21-2.2a1,1,0,0,1,1-.95l7.57,0a1,1,0,0,1,.77.34,1.07,1.07,0,0,1,.28.8l-.18,2.19a1,1,0,0,1-1,1h-.26a1.06,1.06,0,0,1-1-.88,1.37,1.37,0,0,0,0-.23.57.57,0,0,0-.23-.35s-.48,5.05-.48,5.08h.2a1,1,0,0,1,.75.33,1.06,1.06,0,0,1,.29.76v.22a1.05,1.05,0,0,1-1,1Z"/><path class="cls-2" d="M95,42.38a.85.85,0,0,1-.63-.29.83.83,0,0,1-.2-.66l0-.22a.84.84,0,0,1,.83-.74,2.62,2.62,0,0,0,.41,0,3.77,3.77,0,0,0,.08-.47L96,34.89a1.43,1.43,0,0,0-.33.15,1.82,1.82,0,0,0-.68.88.85.85,0,0,1-.78.51h-.27a.86.86,0,0,1-.84-.92l.21-2.2a.84.84,0,0,1,.83-.76l7.57,0a.86.86,0,0,1,.62.27.84.84,0,0,1,.22.64l-.18,2.19a.84.84,0,0,1-.83.78h-.26a.85.85,0,0,1-.83-.71,1.44,1.44,0,0,0-.05-.24A.75.75,0,0,0,100,35a.86.86,0,0,0-.3-.13l-.5,5.26a2,2,0,0,0,0,.31,3.05,3.05,0,0,0,.42,0,.85.85,0,0,1,.6.26.88.88,0,0,1,.23.61v.23a.85.85,0,0,1-.84.81Z"/><path class="cls-1" d="M94.1,33.39l7.56,0-.18,2.2h-.25a2.14,2.14,0,0,0-.06-.31,1.56,1.56,0,0,0-.66-1A3,3,0,0,0,99,33.9L98.4,40a2.52,2.52,0,0,0,0,.75.56.56,0,0,0,.31.37,2,2,0,0,0,.91.14v.23H95l0-.23a1.56,1.56,0,0,0,1-.23,1.59,1.59,0,0,0,.35-1l.58-6.13a3.59,3.59,0,0,0-1.71.41,2.64,2.64,0,0,0-1,1.26h-.27Z"/><path class="cls-1" d="M106.45,42.57a1.06,1.06,0,0,1-.78-.34,1,1,0,0,1-.26-.81l0-.22a1.05,1.05,0,0,1,1-1h.23a2.6,2.6,0,0,0,0-.28s.45-5.26.46-5.28l-.29,0a1.08,1.08,0,0,1-.74-.37,1,1,0,0,1-.25-.79l0-.22a1.06,1.06,0,0,1,1-1h4.59a1.05,1.05,0,0,1,1,1.21l0,.23a1.06,1.06,0,0,1-1,.89h-.15c0,.07,0,.15,0,.27s-.45,5.29-.45,5.31h.23a1.09,1.09,0,0,1,.76.34,1.08,1.08,0,0,1,.27.79v.22a1.06,1.06,0,0,1-1,1Z"/><path class="cls-2" d="M106.45,42.36a.86.86,0,0,1-.62-.27.83.83,0,0,1-.21-.65l0-.22a.84.84,0,0,1,.83-.76,3.61,3.61,0,0,0,.4,0A3.23,3.23,0,0,0,107,40l.45-5.21c0-.12,0-.21,0-.28l-.49,0a.87.87,0,0,1-.59-.3.84.84,0,0,1-.2-.63l0-.22a.85.85,0,0,1,.84-.76h4.59a.86.86,0,0,1,.64.29.84.84,0,0,1,.19.68l0,.22a.87.87,0,0,1-.83.72,1.08,1.08,0,0,0-.32,0,2.14,2.14,0,0,0-.07.44l-.44,5.22c0,.12,0,.22,0,.29a2.27,2.27,0,0,0,.45,0,.88.88,0,0,1,.6.27.82.82,0,0,1,.22.63v.22a.84.84,0,0,1-.84.79Z"/><path class="cls-1" d="M107,33.59l0-.22h4.59l0,.22a1.35,1.35,0,0,0-.9.24,1.56,1.56,0,0,0-.33,1l-.44,5.22a2.51,2.51,0,0,0,0,.73.52.52,0,0,0,.28.34,2.39,2.39,0,0,0,1,.17v.22h-4.67l0-.22a1.44,1.44,0,0,0,1-.24,1.54,1.54,0,0,0,.35-1l.45-5.22a2.28,2.28,0,0,0,0-.72.54.54,0,0,0-.28-.35A2.78,2.78,0,0,0,107,33.59Z"/><path class="cls-1" d="M116.49,42.56a1.05,1.05,0,0,1-.8-.36,1,1,0,0,1-.25-.83l0-.22a1.06,1.06,0,0,1,1-.92h.19c0-.06,0-.16,0-.28s.47-5.27.47-5.29l-.19,0a1.08,1.08,0,0,1-.73-.35,1.06,1.06,0,0,1-.26-.77v-.22a1.07,1.07,0,0,1,1-1H121a5.71,5.71,0,0,1,3,.65,3.16,3.16,0,0,1,1.47,1.94,2.61,2.61,0,0,1-.67,2.48A3,3,0,0,1,124,38l.8,1.36a5.22,5.22,0,0,0,.58.86,2.16,2.16,0,0,0,.33,0,1,1,0,0,1,1,.8l.06.23a1.05,1.05,0,0,1-.2.89,1,1,0,0,1-.82.41h-2.93a1.05,1.05,0,0,1-.9-.5,1,1,0,0,1-.89.51Zm4.77-7.05,0,.26A.65.65,0,0,0,121.26,35.51Z"/><path class="cls-2" d="M116.49,42.35a.82.82,0,0,1-.64-.29.83.83,0,0,1-.2-.66l0-.22a.84.84,0,0,1,.83-.74,1.43,1.43,0,0,0,.36,0,2.45,2.45,0,0,0,.07-.45l.47-5.23c0-.12,0-.21,0-.27l-.4,0a.82.82,0,0,1-.58-.28.86.86,0,0,1-.21-.61V33.3a.84.84,0,0,1,.84-.78H121a5.49,5.49,0,0,1,2.92.62,2.91,2.91,0,0,1,1.37,1.81,2.37,2.37,0,0,1-.62,2.28,2.76,2.76,0,0,1-1,.63l.92,1.57a4,4,0,0,0,.65.93h0a1.08,1.08,0,0,0,.43.07.84.84,0,0,1,.8.64l0,.23a.82.82,0,0,1-.15.71.84.84,0,0,1-.66.33h-2.93a.84.84,0,0,1-.73-.42l-.22-.37,0,.11a.85.85,0,0,1-.83.69Zm4.14-2a3.14,3.14,0,0,0,.44,0l.16,0-.53-.91,0,.53A2.33,2.33,0,0,0,120.63,40.4Zm.35-4.14a.82.82,0,0,0,.35-.23c.06-.08.23-.28.09-.84a.63.63,0,0,0-.23-.39l-.07,0Z"/><path class="cls-1" d="M120,37.52,119.81,40a2.66,2.66,0,0,0,0,.77.63.63,0,0,0,.3.37,2.21,2.21,0,0,0,.94.14l0,.23h-4.52l0-.23a1.39,1.39,0,0,0,.94-.23,1.51,1.51,0,0,0,.33-1l.47-5.23a2.41,2.41,0,0,0,0-.69.55.55,0,0,0-.27-.36,2.16,2.16,0,0,0-.88-.17l0-.22H121a4.75,4.75,0,0,1,2.48.5,2.09,2.09,0,0,1,1,1.29,1.55,1.55,0,0,1-.42,1.51,3.35,3.35,0,0,1-1.59.73l1.46,2.47a4.2,4.2,0,0,0,.88,1.19,1.68,1.68,0,0,0,.9.22l0,.23h-2.92l-2.31-4H120Zm0-.36h.42a1.85,1.85,0,0,0,1.51-.6,1.69,1.69,0,0,0,.27-1.58,1.48,1.48,0,0,0-.56-.87,1.66,1.66,0,0,0-1-.3h-.33Z"/><path class="cls-1" d="M128.88,42.54a1.05,1.05,0,0,1-1-1.19l0-.22a1.07,1.07,0,0,1,1-.92h.23c0-.07,0-.16,0-.28l.48-5.29-.21,0a1.08,1.08,0,0,1-.74-.37,1.1,1.1,0,0,1-.25-.78l0-.23a1,1,0,0,1,1-.95l7.5,0a1,1,0,0,1,.76.33,1,1,0,0,1,.29.78l-.1,2a1.05,1.05,0,0,1-1,1h-.28l-.17,2a1,1,0,0,1,.58-.18h.29a1,1,0,0,1,.81.38,1.09,1.09,0,0,1,.23.87L138,41.66a1.06,1.06,0,0,1-1,.86Zm4.49-2.6a4.57,4.57,0,0,0,1.32-.19,1.06,1.06,0,0,1-.6-.9,2.16,2.16,0,0,0,0-.32h0s-.11,0-.23-.06a2,2,0,0,0-.33,0Zm.37-4.1a1.22,1.22,0,0,0,.41-.11.68.68,0,0,0,.25-.41,1,1,0,0,1,.26-.44,5.57,5.57,0,0,0-.84-.05Z"/><path class="cls-2" d="M128.88,42.33a.85.85,0,0,1-.63-.29.84.84,0,0,1-.21-.66l0-.22a.85.85,0,0,1,.84-.74,1.49,1.49,0,0,0,.4,0,2.29,2.29,0,0,0,.07-.45l.49-5.24c0-.11,0-.19,0-.25l-.42,0a.84.84,0,0,1-.79-.92l0-.23a.84.84,0,0,1,.83-.76H137a.84.84,0,0,1,.84.88l-.1,2a.85.85,0,0,1-.84.8h-.25a.78.78,0,0,1-.22,0l-.24,2.7a.38.38,0,0,1,0,.1c.06-.07.11-.15.16-.22a.84.84,0,0,1,.69-.36h.29a.85.85,0,0,1,.65.3.84.84,0,0,1,.18.7l-.43,2.23a.85.85,0,0,1-.83.69Zm4.48-2.18a4.19,4.19,0,0,0,1.8-.36l.28-.15h-.3a.84.84,0,0,1-.84-.8,2.21,2.21,0,0,0,0-.36.13.13,0,0,0,0-.07.82.82,0,0,0-.34-.15,3.59,3.59,0,0,0-.57,0l-.16,1.91Zm.14-4.08a1.8,1.8,0,0,0,.76-.16.92.92,0,0,0,.34-.53.85.85,0,0,1,.61-.58l-.14,0a4.3,4.3,0,0,0-1.31-.13h-.13Z"/><path class="cls-1" d="M132.86,33.78l-.28,3.16h.32a3.9,3.9,0,0,0,1.77-.29,1.66,1.66,0,0,0,.73-1h.26l-.27,3.18h-.25a3,3,0,0,0-.06-.52,1,1,0,0,0-.36-.54,1.67,1.67,0,0,0-.66-.3,5.23,5.23,0,0,0-1-.06h-.54l-.23,2.74a1.74,1.74,0,0,0,0,.53.31.31,0,0,0,.21.22,2.2,2.2,0,0,0,.87.12,5,5,0,0,0,2.12-.44,3.82,3.82,0,0,0,1.56-1.32h.28l-.43,2.24h-8l0-.22A1.06,1.06,0,0,0,130.22,40l.48-5.25a2.14,2.14,0,0,0,0-.69.56.56,0,0,0-.27-.35,2.38,2.38,0,0,0-.9-.16l0-.23H137l-.1,2h-.25a1.9,1.9,0,0,0-.43-.85,2.25,2.25,0,0,0-.91-.56,5,5,0,0,0-1.6-.17Z"/><path class="cls-1" d="M142.3,42.7a1,1,0,0,1-.75-.32,1,1,0,0,1-.3-.76l.07-3.1a1.07,1.07,0,0,1,1.05-1h.27a1.06,1.06,0,0,1,1,.7,4.43,4.43,0,0,0,.57,1.11,2.15,2.15,0,0,0,.69.59,1.85,1.85,0,0,0,.83.2.74.74,0,0,0,.26,0,1.09,1.09,0,0,0-.23-.4,9,9,0,0,0-1.3-1A8.86,8.86,0,0,1,142.61,37a3.58,3.58,0,0,1-.7-1.39,2.6,2.6,0,0,1,.72-2.57,3.71,3.71,0,0,1,2.73-1,9.09,9.09,0,0,1,1.88.25l.47.1a1,1,0,0,1,.79-.36h.3a1.06,1.06,0,0,1,1.06,1.09l-.11,2.77a1,1,0,0,1-1.05,1h-.14a4.68,4.68,0,0,1,.59.59,3.71,3.71,0,0,1,.76,1.49,2.76,2.76,0,0,1-1.66,3.29,5.23,5.23,0,0,1-2.09.39,11.06,11.06,0,0,1-1.71-.16,9.15,9.15,0,0,0-1.07-.14v0h0l-.14.1a1.05,1.05,0,0,1-.64.22Zm3.56-8a.87.87,0,0,0,.19.28,8.53,8.53,0,0,0,1.36,1.06,2.45,2.45,0,0,0-.31-.59,2.08,2.08,0,0,0-.65-.58A1.27,1.27,0,0,0,145.86,34.72Z"/><path class="cls-2" d="M142.3,42.49a.82.82,0,0,1-.6-.25.84.84,0,0,1-.24-.61l.07-3.11a.84.84,0,0,1,.84-.82h.27a.84.84,0,0,1,.79.56,4.66,4.66,0,0,0,.6,1.16,2.27,2.27,0,0,0,.77.65,1.85,1.85,0,0,0,.92.23.58.58,0,0,0,.44-.13.13.13,0,0,0,0-.15,1.27,1.27,0,0,0-.29-.51,8.28,8.28,0,0,0-1.33-1.07,9,9,0,0,1-1.8-1.57,3.45,3.45,0,0,1-.66-1.31,2.38,2.38,0,0,1,.67-2.37,3.51,3.51,0,0,1,2.58-.91,8.69,8.69,0,0,1,1.83.25,5.42,5.42,0,0,0,.61.11v0a.86.86,0,0,1,.69-.35h.3a.83.83,0,0,1,.61.26.81.81,0,0,1,.23.61l-.1,2.77a.85.85,0,0,1-.84.81h-.23a.83.83,0,0,1-.79-.56,3.45,3.45,0,0,0-.41-.82,2.24,2.24,0,0,0-.72-.63,1.36,1.36,0,0,0-.7-.2.32.32,0,0,0-.24.07,1,1,0,0,0,.28.56,9.23,9.23,0,0,0,1.5,1.16A7.6,7.6,0,0,1,149,37.65a3.39,3.39,0,0,1,.72,1.41,2.58,2.58,0,0,1-.16,1.78,2.64,2.64,0,0,1-1.38,1.26,4.92,4.92,0,0,1-2,.38,10.5,10.5,0,0,1-1.67-.16,8.58,8.58,0,0,0-1.11-.14h-.12a1.37,1.37,0,0,0-.18.12.78.78,0,0,1-.51.18Z"/><path class="cls-1" d="M148.8,33.11l-.1,2.77h-.23a3.86,3.86,0,0,0-.53-1,3,3,0,0,0-1-.87,2.35,2.35,0,0,0-1.12-.3A1.09,1.09,0,0,0,145,34a.84.84,0,0,0-.21.8,2.14,2.14,0,0,0,.5.88A11.22,11.22,0,0,0,146.91,37a6.86,6.86,0,0,1,1.42,1.18,2.8,2.8,0,0,1,.56,1.08,1.78,1.78,0,0,1-.11,1.21,1.82,1.82,0,0,1-1,.86,4.13,4.13,0,0,1-1.66.31,10.21,10.21,0,0,1-1.54-.15,10.17,10.17,0,0,0-1.24-.15,1.27,1.27,0,0,0-.41.06,1.93,1.93,0,0,0-.4.25h-.27l.07-3.11h.27a5.05,5.05,0,0,0,.72,1.39,3.09,3.09,0,0,0,1,.89,2.77,2.77,0,0,0,1.32.32,1.36,1.36,0,0,0,1.05-.4.94.94,0,0,0,.23-.92,2,2,0,0,0-.47-.86,9.48,9.48,0,0,0-1.48-1.21,7.94,7.94,0,0,1-1.63-1.41,2.61,2.61,0,0,1-.5-1,1.56,1.56,0,0,1,.44-1.57,2.68,2.68,0,0,1,2-.67,8.29,8.29,0,0,1,1.65.23,5,5,0,0,0,.84.14.75.75,0,0,0,.35-.08,1,1,0,0,0,.3-.3Z"/><path class="cls-1" d="M1.68,24.91a1.67,1.67,0,0,1-1.25-.57A1.72,1.72,0,0,1,0,23l0-.37a1.68,1.68,0,0,1,1.67-1.49,4.19,4.19,0,0,0,.8-.06,2.35,2.35,0,0,0,.08-.44l.91-8.46c0-.28,0-.51.07-.68-.18,0-.44,0-.81-.06a1.7,1.7,0,0,1-1.21-.56,1.66,1.66,0,0,1-.42-1.26l0-.37A1.7,1.7,0,0,1,2.85,7.71l15.53,0a1.71,1.71,0,0,1,1.22.53,1.67,1.67,0,0,1,.46,1.25l-.21,3.65a1.69,1.69,0,0,1-1.68,1.59h-.52a1.67,1.67,0,0,1-1-.33l-.47,4.49a1.7,1.7,0,0,1-1.67,1.51h-.57a1.67,1.67,0,0,1-1.68-1.64,1.16,1.16,0,0,0,0-.42.29.29,0,0,0-.09-.17.84.84,0,0,0-.38-.18,7.18,7.18,0,0,0-1.25-.09l-.28,2.76-.05.46a9,9,0,0,0,1.07.05,1.69,1.69,0,0,1,1.25.57A1.74,1.74,0,0,1,12.89,23l-.05.38a1.69,1.69,0,0,1-1.67,1.49Zm9.24-11.27a5.36,5.36,0,0,0,.58-.05,2.54,2.54,0,0,0,1-.37,1.13,1.13,0,0,0,.41-.57,1.65,1.65,0,0,1,.55-.75,13.79,13.79,0,0,0-1.44-.06h-.94Z"/><path class="cls-2" d="M1.68,24.48a1.25,1.25,0,0,1-.94-.42,1.27,1.27,0,0,1-.31-1l0-.37a1.27,1.27,0,0,1,1.26-1.12,3.26,3.26,0,0,0,1.12-.13A2.2,2.2,0,0,0,3,20.7l.91-8.46A10.17,10.17,0,0,0,4,11.18,4.35,4.35,0,0,0,2.79,11a1.28,1.28,0,0,1-.91-.42,1.25,1.25,0,0,1-.31-.94l0-.38A1.26,1.26,0,0,1,2.85,8.14l15.53,0a1.27,1.27,0,0,1,1.26,1.34l-.21,3.65a1.26,1.26,0,0,1-1.26,1.19h-.52a1.27,1.27,0,0,1-1.19-.83c0-.12-.08-.22-.12-.32a1.77,1.77,0,0,1,0,.23l-.57,5.45a1.27,1.27,0,0,1-1.26,1.13h-.56a1.27,1.27,0,0,1-1.26-1.23,2.33,2.33,0,0,0-.06-.53.77.77,0,0,0-.23-.38,1.32,1.32,0,0,0-.56-.26,11.57,11.57,0,0,0-1.72-.12l-.32,3.16-.08.76a.2.2,0,0,1,0,.07.49.49,0,0,0,.17,0,6.48,6.48,0,0,0,1.33.09A1.27,1.27,0,0,1,12.47,23l-.05.38a1.26,1.26,0,0,1-1.25,1.11Zm8.77-10.4A10.41,10.41,0,0,0,11.58,14a2.84,2.84,0,0,0,1.2-.45,1.47,1.47,0,0,0,.56-.76A1.29,1.29,0,0,1,14.53,12h.55a1.26,1.26,0,0,1,.51.11,3.29,3.29,0,0,0-.88-.4,10,10,0,0,0-2.65-.25H10.74Z"/><path class="cls-1" d="M9.61,10.16,9,15.38a24,24,0,0,0,2.76-.13,4,4,0,0,0,1.71-.65,2.74,2.74,0,0,0,1-1.37h.55l-.58,5.45h-.56a3.5,3.5,0,0,0-.11-.84,1.92,1.92,0,0,0-.65-1,2.59,2.59,0,0,0-1.07-.51A20.65,20.65,0,0,0,9,16.14l-.45,4.32-.08.86a2.08,2.08,0,0,0,.07.5,1.05,1.05,0,0,0,.36.56,1.76,1.76,0,0,0,.7.32,7.4,7.4,0,0,0,1.63.12l0,.38-9.49,0,.05-.38a3.42,3.42,0,0,0,1.89-.37,2.24,2.24,0,0,0,.66-1.63l.92-8.46a7.67,7.67,0,0,0,.06-1.71,1.21,1.21,0,0,0-.63-.61,4.84,4.84,0,0,0-1.81-.28l0-.38,15.53,0L18.17,13h-.52a4.56,4.56,0,0,0-1-1.7,3.75,3.75,0,0,0-1.59-.86,10.82,10.82,0,0,0-3.06-.3Z"/><path class="cls-1" d="M21.82,24.87a1.68,1.68,0,0,1-1.27-.59,1.66,1.66,0,0,1-.39-1.35l.06-.38a1.67,1.67,0,0,1,1.66-1.43,4.59,4.59,0,0,0,.89-.07,2.93,2.93,0,0,0,.09-.55s1-9,1-9c-.19,0-.46-.05-.83-.07a1.69,1.69,0,0,1-1.2-.59,1.73,1.73,0,0,1-.39-1.29l.05-.37a1.67,1.67,0,0,1,1.66-1.49l15.15,0a1.7,1.7,0,0,1,1.23.53A1.65,1.65,0,0,1,40,9.43l-.2,3.46a1.69,1.69,0,0,1-1.68,1.58h-.51a1.56,1.56,0,0,1-.48-.08l-.45,4.34a4.47,4.47,0,0,0,.42-.45,1.7,1.7,0,0,1,1.29-.62h.58a1.66,1.66,0,0,1,1.32.64,1.69,1.69,0,0,1,.33,1.42l-.87,3.8a1.69,1.69,0,0,1-1.64,1.31Zm8.62-4.21h.45A10.76,10.76,0,0,0,34,20.24a1.67,1.67,0,0,1-1.21-1.52,2.44,2.44,0,0,0-.07-.5A3.41,3.41,0,0,0,32,18a7.13,7.13,0,0,0-1.25-.07C30.65,18.58,30.51,20,30.44,20.66Zm.74-6.91a4.83,4.83,0,0,0,1.63-.29,1.24,1.24,0,0,0,.61-.79,1.68,1.68,0,0,1,.54-.74,15.44,15.44,0,0,0-2.26-.13h-.32Z"/><path class="cls-2" d="M21.82,24.45A1.26,1.26,0,0,1,20.58,23l.05-.37a1.28,1.28,0,0,1,1.25-1.08,3.1,3.1,0,0,0,1.23-.15,3.53,3.53,0,0,0,.17-.84l1-8.9a2.5,2.5,0,0,0,0-.52A9.24,9.24,0,0,0,23,11a1.26,1.26,0,0,1-1.19-1.41l0-.37A1.27,1.27,0,0,1,23.15,8.1l15.14,0a1.24,1.24,0,0,1,.92.4,1.21,1.21,0,0,1,.34.94l-.2,3.45a1.26,1.26,0,0,1-1.26,1.19h-.51a1.28,1.28,0,0,1-.84-.31l-.51,5A1.27,1.27,0,0,1,35,19.89h-.49a1.26,1.26,0,0,1-1.26-1.19,2.9,2.9,0,0,0-.08-.59s0-.11-.19-.21a2.64,2.64,0,0,0-.9-.33,9.08,9.08,0,0,0-1.67-.08h0L30,21a6.38,6.38,0,0,0,.91.05,11,11,0,0,0,3.88-.66,6.26,6.26,0,0,0,2.62-1.88,1.29,1.29,0,0,1,1-.45h.58a1.25,1.25,0,0,1,1.23,1.54l-.86,3.79a1.27,1.27,0,0,1-1.23,1ZM30.71,14.2A6.39,6.39,0,0,0,33,13.84a1.66,1.66,0,0,0,.83-1A1.25,1.25,0,0,1,35,12h.41a4.06,4.06,0,0,0-.88-.36,11.3,11.3,0,0,0-2.84-.25H31Z"/><path class="cls-1" d="M29.86,10.11l-.55,5.36H30A9.21,9.21,0,0,0,33.53,15,2.91,2.91,0,0,0,35,13.24h.52L35,18.62h-.49a3.64,3.64,0,0,0-.13-.87,1.62,1.62,0,0,0-.72-.92,4,4,0,0,0-1.34-.5,12.15,12.15,0,0,0-2-.1h-1.1l-.46,4.64a2.47,2.47,0,0,0,0,.9.6.6,0,0,0,.42.38,5.1,5.1,0,0,0,1.75.2,11.65,11.65,0,0,0,4.3-.75,7.58,7.58,0,0,0,3.14-2.24h.57l-.86,3.79-16.26,0,.06-.37a3.65,3.65,0,0,0,2-.4,2.35,2.35,0,0,0,.69-1.73l1-8.9a3.06,3.06,0,0,0-.05-1.17.94.94,0,0,0-.55-.59,5.7,5.7,0,0,0-1.81-.28l0-.38,15.14,0-.21,3.46h-.5a3.31,3.31,0,0,0-.85-1.44,4.84,4.84,0,0,0-1.85-.94,12.84,12.84,0,0,0-3.24-.3Z"/><path class="cls-1" d="M45,25.15a1.7,1.7,0,0,1-1.21-.52,1.71,1.71,0,0,1-.47-1.22l.15-5.27a1.68,1.68,0,0,1,1.68-1.63h.54a1.67,1.67,0,0,1,1.55,1,7,7,0,0,0,1.16,1.89,4.46,4.46,0,0,0,1.55,1.1,4.82,4.82,0,0,0,2,.4,1.65,1.65,0,0,0,1-.2,2.32,2.32,0,0,0-.46-.61,17.92,17.92,0,0,0-2.69-1.8A17.64,17.64,0,0,1,46,15.63a5.67,5.67,0,0,1-1.41-2.37A4,4,0,0,1,46,8.84a7.81,7.81,0,0,1,5.11-1.53,20.76,20.76,0,0,1,3.63.42,9.4,9.4,0,0,0,1.38.2l0,0a1.7,1.7,0,0,1,1.28-.59h.62a1.68,1.68,0,0,1,1.68,1.76l-.21,4.69a1.68,1.68,0,0,1-1.68,1.61h-.47a1.83,1.83,0,0,1-.4,0,9.59,9.59,0,0,1,1.33,1.1A6,6,0,0,1,59.88,19a4.18,4.18,0,0,1-.37,3.36A5.13,5.13,0,0,1,56.7,24.5a11.19,11.19,0,0,1-3.94.63,25.89,25.89,0,0,1-3.34-.27c-1.6-.21-2.12-.24-2.27-.24a1.74,1.74,0,0,0-.33,0,2.7,2.7,0,0,0-.4.22,1.66,1.66,0,0,1-.92.28Zm6.73-13.48a3.08,3.08,0,0,0,.42.48,18.29,18.29,0,0,0,3,2l1,.57a1.27,1.27,0,0,1-.2-.34A5.31,5.31,0,0,0,55.1,13,4.59,4.59,0,0,0,53.67,12a3.72,3.72,0,0,0-1.55-.36A1.33,1.33,0,0,0,51.68,11.67Z"/><path class="cls-2" d="M45,24.72a1.22,1.22,0,0,1-.9-.38,1.24,1.24,0,0,1-.36-.92l.15-5.26a1.26,1.26,0,0,1,1.26-1.23h.54a1.24,1.24,0,0,1,1.16.77,7.16,7.16,0,0,0,1.24,2,4.69,4.69,0,0,0,1.69,1.2,5.13,5.13,0,0,0,2.14.44A1.94,1.94,0,0,0,53.15,21c.15-.14.15-.18.11-.28a2.14,2.14,0,0,0-.61-.91,17.69,17.69,0,0,0-2.77-1.87,17.43,17.43,0,0,1-3.55-2.6A5.42,5.42,0,0,1,45,13.14a3.65,3.65,0,0,1,1.29-4,7.43,7.43,0,0,1,4.84-1.43,20.1,20.1,0,0,1,3.56.42,9.35,9.35,0,0,0,1.47.21.79.79,0,0,0,.17,0,1.65,1.65,0,0,0,.17-.18,1.26,1.26,0,0,1,1-.44h.62a1.26,1.26,0,0,1,.91.39,1.25,1.25,0,0,1,.35.93l-.21,4.69a1.27,1.27,0,0,1-1.26,1.21h-.47a1.26,1.26,0,0,1-1.15-.76,5.61,5.61,0,0,0-.85-1.43,4.82,4.82,0,0,0-1.58-1.16,4,4,0,0,0-1.72-.4,1.19,1.19,0,0,0-.88.26l-.09.1a2.4,2.4,0,0,0,.67.91,19,19,0,0,0,3.09,2,14.92,14.92,0,0,1,3.14,2.22,5.6,5.6,0,0,1,1.43,2.37,3.8,3.8,0,0,1-.33,3,4.77,4.77,0,0,1-2.6,2,11,11,0,0,1-3.79.6,24.82,24.82,0,0,1-3.28-.27,21.47,21.47,0,0,0-2.33-.24,1.8,1.8,0,0,0-.46.05,2.59,2.59,0,0,0-.5.27,1.27,1.27,0,0,1-.69.2Z"/><path class="cls-1" d="M58.1,9l-.21,4.69h-.46a6.72,6.72,0,0,0-1.07-1.76,6.17,6.17,0,0,0-2-1.47,5.32,5.32,0,0,0-2.26-.52,2.5,2.5,0,0,0-1.74.61A1.33,1.33,0,0,0,50,11.91a3.47,3.47,0,0,0,1,1.48,21.46,21.46,0,0,0,3.32,2.19,13.29,13.29,0,0,1,2.87,2,4.44,4.44,0,0,1,1.12,1.83,2.56,2.56,0,0,1-.22,2,3.51,3.51,0,0,1-1.93,1.45,9.83,9.83,0,0,1-3.36.53,24.47,24.47,0,0,1-3.11-.26,23.83,23.83,0,0,0-2.51-.25,2.5,2.5,0,0,0-.82.11,3.11,3.11,0,0,0-.82.41H45l.16-5.27h.53a8.5,8.5,0,0,0,1.46,2.36,6.07,6.07,0,0,0,2.13,1.51,6.61,6.61,0,0,0,2.65.54A3,3,0,0,0,54,21.93a1.46,1.46,0,0,0,.48-1.57,3.43,3.43,0,0,0-1-1.46,18.25,18.25,0,0,0-3-2,16.58,16.58,0,0,1-3.29-2.4,4.15,4.15,0,0,1-1-1.67,2.38,2.38,0,0,1,.89-2.66,6.15,6.15,0,0,1,4-1.13,19.33,19.33,0,0,1,3.32.39,11.85,11.85,0,0,0,1.71.23,1.6,1.6,0,0,0,.69-.13,1.74,1.74,0,0,0,.61-.5Z"/><path class="cls-1" d="M67.3,24.8a1.69,1.69,0,0,1-1.67-1.88l0-.38a1.7,1.7,0,0,1,1.68-1.49,4.63,4.63,0,0,0,.88-.07,4.19,4.19,0,0,0,.09-.54l.91-8.84a1.11,1.11,0,0,0,0-.17c-.21,0-.53-.06-1-.08a1.66,1.66,0,0,1-1.21-.59,1.7,1.7,0,0,1-.39-1.28l0-.38a1.68,1.68,0,0,1,1.67-1.49l9.27,0A1.67,1.67,0,0,1,79,8.2a1.71,1.71,0,0,1,.36,1.39l-.07.38a1.7,1.7,0,0,1-1.65,1.37,3.22,3.22,0,0,0-.72.06,3,3,0,0,0-.09.53s-.9,9-.91,9.05a8.12,8.12,0,0,0,.9.06,1.67,1.67,0,0,1,1.23.54,1.7,1.7,0,0,1,.43,1.27l0,.38a1.69,1.69,0,0,1-1.67,1.55Z"/><path class="cls-2" d="M67.3,24.38A1.26,1.26,0,0,1,66.05,23l0-.38a1.27,1.27,0,0,1,1.26-1.12,3.23,3.23,0,0,0,1.21-.15,3.76,3.76,0,0,0,.18-.84l.91-8.83a4.91,4.91,0,0,0,0-.57,8.24,8.24,0,0,0-1.39-.15,1.24,1.24,0,0,1-.91-.44,1.31,1.31,0,0,1-.29-1l0-.37A1.27,1.27,0,0,1,68.39,8l9.27,0a1.27,1.27,0,0,1,1.25,1.5l-.08.38a1.27,1.27,0,0,1-1.23,1,2.25,2.25,0,0,0-1,.15,2.79,2.79,0,0,0-.18.82l-.89,8.85a5.52,5.52,0,0,0,0,.59,5.93,5.93,0,0,0,1.34.13,1.25,1.25,0,0,1,.92.41,1.27,1.27,0,0,1,.32.95l0,.38a1.26,1.26,0,0,1-1.25,1.16Z"/><path class="cls-1" d="M68.35,9.67l0-.38h9.27l-.07.37a3.06,3.06,0,0,0-1.8.41,2.38,2.38,0,0,0-.68,1.71l-.88,8.84a4,4,0,0,0,0,1.26,1,1,0,0,0,.56.57,5.6,5.6,0,0,0,2,.28l0,.38H67.3l0-.37a3.56,3.56,0,0,0,2-.4A2.41,2.41,0,0,0,70,20.62l.91-8.84a3.39,3.39,0,0,0,0-1.24,1,1,0,0,0-.56-.59A6.59,6.59,0,0,0,68.35,9.67Z"/><path class="cls-1" d="M87.93,24.77a1.65,1.65,0,0,1-1.27-.59,1.62,1.62,0,0,1-.39-1.35l0-.38A1.7,1.7,0,0,1,88,21a4.06,4.06,0,0,0,.9-.07,3.59,3.59,0,0,0,.1-.58l1-8.3a4.14,4.14,0,0,0-.78.28,3.13,3.13,0,0,0-1.33,1.42,1.69,1.69,0,0,1-1.49.91h-.55a1.7,1.7,0,0,1-1.25-.56,1.67,1.67,0,0,1-.42-1.31l.41-3.72a1.67,1.67,0,0,1,1.67-1.5l15.29,0a1.68,1.68,0,0,1,1.24.55,1.66,1.66,0,0,1,.43,1.29l-.35,3.72a1.68,1.68,0,0,1-1.68,1.53h-.5A1.7,1.7,0,0,1,99,13.29a3.14,3.14,0,0,0-.08-.38,1.1,1.1,0,0,0-.56-.65,2.74,2.74,0,0,0-.76-.26l-1,8.74c0,.08,0,.15,0,.22.19,0,.46,0,.85.05a1.66,1.66,0,0,1,1.2.52,1.7,1.7,0,0,1,.46,1.23l0,.38a1.67,1.67,0,0,1-1.68,1.61Z"/><path class="cls-2" d="M87.93,24.35a1.26,1.26,0,0,1-1-.44,1.29,1.29,0,0,1-.29-1l.06-.37A1.28,1.28,0,0,1,88,21.44a3.6,3.6,0,0,0,1.22-.14,2.67,2.67,0,0,0,.2-.88l1-8.88A4.87,4.87,0,0,0,89,12a3.49,3.49,0,0,0-1.51,1.59,1.26,1.26,0,0,1-1.12.68h-.55a1.29,1.29,0,0,1-.94-.42,1.32,1.32,0,0,1-.32-1L85,9.13A1.26,1.26,0,0,1,86.2,8l15.29,0a1.27,1.27,0,0,1,.93.41,1.24,1.24,0,0,1,.32,1l-.35,3.72a1.27,1.27,0,0,1-1.26,1.15h-.5a1.26,1.26,0,0,1-1.24-1c0-.16-.07-.3-.1-.41a1.44,1.44,0,0,0-.75-.9,3.8,3.8,0,0,0-1.34-.4l-1,9.19a5.66,5.66,0,0,0,0,.62,5.62,5.62,0,0,0,1.27.12,1.23,1.23,0,0,1,.9.39,1.27,1.27,0,0,1,.35.92l0,.38a1.25,1.25,0,0,1-1.26,1.21Z"/><path class="cls-1" d="M86.2,9.27l15.29,0L101.13,13h-.5a4.37,4.37,0,0,0-.13-.52,2.72,2.72,0,0,0-1.33-1.64,6.92,6.92,0,0,0-3.08-.66L94.9,20.54a3.51,3.51,0,0,0,0,1.29,1,1,0,0,0,.62.61,4.94,4.94,0,0,0,1.84.25l0,.38-9.43,0,.06-.38a3.63,3.63,0,0,0,2-.4,2.48,2.48,0,0,0,.69-1.76l1.18-10.4a8.15,8.15,0,0,0-3.45.7A4.76,4.76,0,0,0,86.34,13h-.55Z"/><path class="cls-1" d="M104.94,24.74a1.69,1.69,0,0,1-1.66-1.94l.06-.38A1.66,1.66,0,0,1,105,21a4.33,4.33,0,0,0,.89-.08,3.81,3.81,0,0,0,.1-.54s1-9,1-9l-.83-.06a1.7,1.7,0,0,1-1.59-1.88l0-.38a1.69,1.69,0,0,1,1.67-1.49l15.15,0a1.68,1.68,0,0,1,1.23.53,1.73,1.73,0,0,1,.46,1.26l-.21,3.45a1.69,1.69,0,0,1-1.68,1.59h-.51a1.92,1.92,0,0,1-.48-.07l-.45,4.33a4.47,4.47,0,0,0,.42-.45,1.67,1.67,0,0,1,1.3-.61h.57a1.68,1.68,0,0,1,1.32.63,1.71,1.71,0,0,1,.33,1.43l-.87,3.79a1.68,1.68,0,0,1-1.64,1.31Zm8.62-4.21H114a10.69,10.69,0,0,0,3.11-.42,1.69,1.69,0,0,1-1.21-1.52c0-.24,0-.38,0-.45a2.3,2.3,0,0,0-.78-.3,9.13,9.13,0,0,0-1.25-.06C113.77,18.45,113.63,19.83,113.56,20.53Zm.74-6.91a4.9,4.9,0,0,0,1.63-.29,1.24,1.24,0,0,0,.61-.79,1.8,1.8,0,0,1,.53-.74,14.76,14.76,0,0,0-2.25-.13h-.32Z"/><path class="cls-2" d="M104.94,24.32a1.26,1.26,0,0,1-1.24-1.46l0-.37A1.27,1.27,0,0,1,105,21.42a3,3,0,0,0,1.23-.16,3.53,3.53,0,0,0,.17-.84l1-8.9a2.4,2.4,0,0,0,0-.51,6.59,6.59,0,0,0-1.23-.13,1.27,1.27,0,0,1-.9-.45,1.24,1.24,0,0,1-.29-1l0-.38A1.27,1.27,0,0,1,106.27,8l15.14,0a1.28,1.28,0,0,1,.92.4,1.21,1.21,0,0,1,.34.94l-.2,3.46a1.28,1.28,0,0,1-1.26,1.19h-.51a1.29,1.29,0,0,1-.84-.32l-.51,5a1.27,1.27,0,0,1-1.26,1.13h-.49a1.26,1.26,0,0,1-1.26-1.19,2.9,2.9,0,0,0-.08-.59s0-.11-.19-.21a2.64,2.64,0,0,0-.9-.33,10.23,10.23,0,0,0-1.67-.08h0s-.36,3.53-.36,3.55a9.11,9.11,0,0,0,.92,0,10.53,10.53,0,0,0,3.87-.66,6.24,6.24,0,0,0,2.62-1.87,1.27,1.27,0,0,1,1-.46h.57a1.25,1.25,0,0,1,1.23,1.54l-.86,3.8a1.26,1.26,0,0,1-1.23,1Zm8.89-10.25a6.14,6.14,0,0,0,2.28-.36,1.61,1.61,0,0,0,.83-1,1.26,1.26,0,0,1,1.18-.84h.41a3.37,3.37,0,0,0-.87-.35,10.81,10.81,0,0,0-2.84-.25h-.7Z"/><path class="cls-1" d="M113,10l-.55,5.36h.65a9.16,9.16,0,0,0,3.57-.5,2.89,2.89,0,0,0,1.48-1.73h.52l-.56,5.39h-.49a3.83,3.83,0,0,0-.13-.88,1.6,1.6,0,0,0-.72-.91,3.82,3.82,0,0,0-1.34-.51,12.15,12.15,0,0,0-2-.1h-1.09l-.47,4.64a2.53,2.53,0,0,0,0,.91.61.61,0,0,0,.42.37,4.86,4.86,0,0,0,1.75.2,11.86,11.86,0,0,0,4.3-.74,7.69,7.69,0,0,0,3.14-2.25h.57L121.2,23l-16.26,0,.06-.38a3.45,3.45,0,0,0,2-.4,2.33,2.33,0,0,0,.69-1.72l1-8.9a3,3,0,0,0,0-1.17,1,1,0,0,0-.55-.6,5.7,5.7,0,0,0-1.81-.28l0-.37,15.14,0-.21,3.45h-.5a3.27,3.27,0,0,0-.85-1.43,4.89,4.89,0,0,0-1.84-1,13,13,0,0,0-3.25-.3Z"/></svg>