<svg id="Capa_1" data-name="Capa 1" xmlns="http://www.w3.org/2000/svg" viewBox="0 0 150 50"><defs><style>.cls-1{fill:#ef8022;}</style></defs><path d="M57.86,49.42c-3.32-.89-4.57-3.43-3.39-6.67a14.12,14.12,0,0,1,7.4-8.1,20.43,20.43,0,0,1,13.7-1.48,5.68,5.68,0,0,1,2.89,1.57,4,4,0,0,1,1,3.7A12.66,12.66,0,0,1,76,44.91a16.75,16.75,0,0,1-10.92,5c-.41,0-.83.08-1.25.1A37.67,37.67,0,0,1,57.86,49.42Zm3.16-6a1.78,1.78,0,0,0,1.28,2.36,8,8,0,0,0,2.58.31c4.37-.19,6.72-4,7.42-7.23a1.7,1.7,0,0,0-1.13-2.08C65.37,34.8,61.7,40.45,61,43.4Z"/><path d="M47.9,13.57a13.52,13.52,0,0,1,4.64.62c2.74,1,3.78,3.09,2.87,5.86a13.61,13.61,0,0,1-8.31,8.77A18.66,18.66,0,0,1,36,29.55,4.33,4.33,0,0,1,32.4,26a5.83,5.83,0,0,1,.43-3.09A13.56,13.56,0,0,1,40,15.18,17.6,17.6,0,0,1,47.9,13.57Zm-6,12.75,1-.06.35-.06a6.52,6.52,0,0,0,4.65-3.64,13.16,13.16,0,0,0,1-2.45,2,2,0,0,0-1.72-2.74,8,8,0,0,0-2.53.06c-3.33.64-5.16,3.72-5.71,6.41a1.93,1.93,0,0,0,1.9,2.41C41.25,26.29,41.61,26.3,41.92,26.32Z"/><path d="M16.54,26.34A2,2,0,0,1,15,23.76a13,13,0,0,1,1-2.64,7,7,0,0,1,6.8-4.06c1.53,0,2,.38,2.52,1.83l6.51-.84a10.77,10.77,0,0,0-.19-1.69,3.3,3.3,0,0,0-3-2.45,42.46,42.46,0,0,0-5.64-.3,15.75,15.75,0,0,0-10.13,3.57,12.27,12.27,0,0,0-4.39,6.7,4.29,4.29,0,0,0,3.08,5.54,12.47,12.47,0,0,0,2.85.53,24.74,24.74,0,0,0,12.64-2.4,1,1,0,0,0,.42-.45c.93-1.92,1.84-3.83,2.75-5.75.09-.2.15-.42.25-.69-3.24,0-6.48,0-9.62,0l-1.6,3.14,4.19-.07-.72,1.64S21.1,26.76,16.54,26.34Z"/><path d="M25.12,44.22a14.89,14.89,0,0,1-3.06,2.9c-3.55,2.53-7.58,3.12-11.8,2.8a15,15,0,0,1-3.39-.59,4.48,4.48,0,0,1-3.08-5.92,13.85,13.85,0,0,1,7.39-8.75,19.74,19.74,0,0,1,13.58-1.48c3,1,3.21,4.75,3.21,4.79-2,.27-4.46.59-6.52.9a2,2,0,0,0-1.83-2.22,6.9,6.9,0,0,0-6.42,2.22,10.74,10.74,0,0,0-2.41,4.54A1.83,1.83,0,0,0,12.43,46a6.5,6.5,0,0,0,6.31-2.11,12.89,12.89,0,0,0,.86-1.12C20.83,43.18,23.73,43.87,25.12,44.22Z"/><path d="M50,32.92c-2.22-.12-14.9-.12-14.9-.12L26.88,49.61l6.88,0,3.36-6.94.94,0a2.25,2.25,0,0,1,2.18,1.88l.86,5.1,7.81-.18-1-4.81a3.25,3.25,0,0,0-2.56-2.55l-.09,0s6.26-1.2,7.81-4.44S52.18,33,50,32.92Zm-6.45,6.54c-2.75.12-4.81.15-4.81.15l1.69-3.42s2.29,0,4.51.06S46.26,39.34,43.51,39.46Z"/><polygon points="90.68 32.83 84.11 32.77 80.93 49.67 87.66 49.64 96.85 38.97 95.65 49.59 102.5 49.59 115.69 32.8 109.02 32.8 102.08 42.24 103.15 32.84 96.62 32.84 88.52 42.14 90.68 32.83"/><polygon points="125.51 32.86 118.91 32.83 110.77 49.61 117.15 49.58 121.78 40.35 125.76 49.7 132.33 49.64 140.6 32.77 133.97 32.83 129.43 42.08 125.51 32.86"/><polygon points="132.67 13.66 126.64 13.63 119.19 29.56 125.03 29.53 129.26 20.78 132.9 29.65 138.9 29.59 146.46 13.57 140.4 13.63 136.25 22.42 132.67 13.66"/><polygon points="120.74 17.03 122.28 13.64 105.34 13.61 97.78 29.56 115.09 29.56 116.67 26.04 105.83 26.04 107.34 22.8 117.25 22.8 118.7 19.65 108.81 19.65 110.03 17.03 120.74 17.03"/><polygon points="69.15 13.67 62.76 13.67 55.33 29.49 71.52 29.49 73.44 25.67 63.32 25.67 69.15 13.67"/><path d="M93.92,13.79l-11.54-.22-7.46,16s7.37-.06,10.52-.06a13.63,13.63,0,0,0,8.82-3.43c2-2,4-4,4.35-8.61C98.61,17.49,98.8,14.19,93.92,13.79Zm-1.82,5.8a20.56,20.56,0,0,1-2,4.07,5.16,5.16,0,0,1-3.46,2.26c-1.23.09-3.7.09-3.7.09s4-8.7,4.07-8.79l2.65,0C91,17.31,92.56,18.17,92.1,19.59Z"/><path class="cls-1" d="M48.81,8.6a9.81,9.81,0,0,1-5.39-5A10.42,10.42,0,0,1,39.5,9.31a9.53,9.53,0,0,1-6.71,1.62l4.08,4.59.13-.06a17.83,17.83,0,0,1,7.58-2.92,18.63,18.63,0,0,1,8.43.39.83.83,0,0,0,.29.06l2.49-4.55A9.28,9.28,0,0,1,48.81,8.6Z"/><circle class="cls-1" cx="57.5" cy="5.63" r="1.4"/><circle class="cls-1" cx="43.12" cy="1.4" r="1.4"/><circle class="cls-1" cx="30.35" cy="8.53" r="1.4"/></svg>