<svg id="Capa_1" data-name="Capa 1" xmlns="http://www.w3.org/2000/svg" viewBox="0 0 150 50"><defs><style>.cls-1{fill:#ffdc00;}.cls-2{fill:#1d1d1b;}.cls-3{fill:#fff;}.cls-4{fill:#e20613;}</style></defs><rect class="cls-1" y="10.12" width="150" height="29.76"/><path class="cls-2" d="M138.79,18.91H124.05l-1,2.31h2.3l-3,7h-2.29l-1,2.31h10l1-2.32H128l1-2.42h6.64a3.14,3.14,0,0,0,2.83-1.46c1.07-1.86,2.78-5.4.27-5.4m-5,3.1c-.17.63-.42,1.71-1.47,1.61H130l1-2.4h2.43C134,21.22,133.9,21.74,133.82,22Z"/><polygon class="cls-2" points="86.2 21.21 87.9 21.21 88.94 18.91 82.42 18.91 81.38 21.21 83.23 21.21 81.32 25.61 77.96 18.91 71.57 18.91 70.55 21.22 72.52 21.22 69.52 28.19 67.63 28.19 66.63 30.51 73.25 30.51 74.25 28.2 72.39 28.2 74.33 23.58 77.82 30.51 82.19 30.51 86.2 21.21"/><path class="cls-2" d="M49.78,23.52c.69-1.54,1.19-4.61-1.69-4.61H34.88l-1,2.31h2.05l-3,7H30.88l-1,2.32h13c4.88,0,6.21-5.46,6.89-7m-8.51,4.67H38.76l2.92-7h1.84c1.44-.07,1,1.07.7,2.38S42.55,28.16,41.27,28.19Z"/><path class="cls-3" d="M22.09,24.72a5.59,5.59,0,0,1-5.43,5.75,5.59,5.59,0,0,1-5.43-5.75A5.6,5.6,0,0,1,16.66,19,5.6,5.6,0,0,1,22.09,24.72Z"/><path class="cls-2" d="M16.16,18.51c-8.28.31-8.4,11.81,0,12.49l-6,5.62,18.38-12L10.22,13.3l5.94,5.21m5.93,6.21a5.59,5.59,0,0,1-5.43,5.75,5.59,5.59,0,0,1-5.43-5.75A5.6,5.6,0,0,1,16.66,19,5.6,5.6,0,0,1,22.09,24.72Z"/><path class="cls-2" d="M56.55,30.64c-.18,0,6.8.46,7.77-2.91l2.87-6.49h1.86l1-2.33H63.59l-1,2.31h1.85l-2.2,5.25c-.74,1.42-1.13,1.65-3,1.61s-1.78-.92-1.42-1.92L60,21.22h1.79l1-2.31h-9.6l-1,2.31h2l-2.44,5.71C50.45,30.9,55.7,30.69,56.55,30.64Z"/><polygon class="cls-2" points="88.86 28.2 86.86 28.2 85.87 30.51 100.28 30.51 102.77 24.74 100.67 24.74 97.92 28.2 94.77 28.2 97.71 21.22 99.57 21.22 100.56 18.91 90.78 18.91 89.78 21.21 91.85 21.21 88.86 28.2"/><path class="cls-2" d="M104.52,30.36a38.12,38.12,0,0,0,8.45.35c5,.17,7.79-6,8.07-8.17.24-1.84.76-3.4-2.68-3.78a44.41,44.41,0,0,0-7.86,0A6.68,6.68,0,0,0,106,20.6,12.82,12.82,0,0,0,103,26c-1,3.74,1.26,4.27,1.49,4.34M109,25.82a18.27,18.27,0,0,1,1.89-4.12c.62-.92,1.43-1,3.35-.81.73.16,1.67.64.64,3-.89,2-1.46,3.92-2.48,4.3a6.25,6.25,0,0,1-2.9.1C108.83,28.17,108.54,27.47,109,25.82Z"/><path class="cls-4" d="M12.86,26l-.44,1h6.66a2.43,2.43,0,0,0,2.4-2.4,2,2,0,0,0-2-2.1H13.91l-.38,1.13h.9L13.57,26h-.71m4.55-2.41h.76c.65,0,.45,1,.45.92,0,.54-.44,1.48-1.29,1.43H16.4Z"/></svg>