<svg id="Capa_1" data-name="Capa 1" xmlns="http://www.w3.org/2000/svg" viewBox="0 0 150 50"><defs><style>.cls-1{fill:red;}</style></defs><path d="M103.69,12.79v20H98.21v-11l-.44-.11L91.64,32.87l-6.27-12.3-.32.05V32.75H81.68V13.26c1.77,0,3.43-.1,5.07.05.49,0,1.06.7,1.35,1.21,1.48,2.68,2.88,5.41,4.32,8.11.29.55.64,1.08,1.25,2.1,1-2.14,1.74-3.81,2.49-5.47.39-.85.77-1.7,1.15-2.55C99.09,12.75,99.09,12.88,103.69,12.79Z"/><path d="M79.16,13.26v4.07c-3.09,0-6.08.05-9.07,0-1.61,0-2.33.51-2.27,2.19.08,2.46.06,4.93,0,7.39,0,1.44.52,2,2,2,3.06-.08,6.12,0,9.3,0v4c-5.38,0-10.7,0-16-.09-.53,0-1.48-1.21-1.49-1.87-.13-5.2-.07-10.4-.07-15.6a1.78,1.78,0,0,1,1.91-2.06C68.66,13.24,73.85,13.26,79.16,13.26Z"/><path d="M60.31,32.64l0,0c-.19.1-4,0-4.35,0-.75,0-.86-1.5-1.38-3.37-1-3.53-2-7-2.91-10.58a2.18,2.18,0,0,0-.54-1.12,1.64,1.64,0,0,0-1.19-.24c-.54,0-1.09-.05-1.64,0a1.94,1.94,0,0,0-2,1.26c-.37,1.21-.69,2.42-1.12,3.91H49.1c2.5,0,2.5,0,2.91,2.95,0,0-2.25-.05-2.43-.05a23.55,23.55,0,0,0-3,0c-1.63.15-2.31,1.56-2.67,3-.28,1.12-.51,2.24-.87,3.33a1.69,1.69,0,0,1-.37.73c-.4.42-1.56.19-2.11.19H39c.44-1.59.87-3.17,1.32-4.74,1.18-4.22,2.42-8.43,3.54-12.68a2.34,2.34,0,0,1,2.67-2.05c2.34.08,4.68,0,7,.09.53,0,1.39.43,1.51.84C56.88,20.29,58.59,26.49,60.31,32.64Z"/><path d="M149.4,32.66h-6.59a4.28,4.28,0,0,1-.94-1c-1.05-1.36-2-2.78-3.12-4.36a33.24,33.24,0,0,0-2.57,3.3,4.76,4.76,0,0,1-2.07,2H129.2c2.49-3.18,4.73-6,7-8.93l-7.46-10.47c2.44,0,4.47,0,6.5,0a1.91,1.91,0,0,1,1.24.82q6.45,9,12.83,18.1C149.38,32.29,149.38,32.4,149.4,32.66Z"/><path d="M30.69,25.45l5.94,7.1c-.1.1-5.08,0-5.37,0-.8,0-1.59-1.32-2.26-2.15L22.66,22.5c2.11,0,3.78,0,5.45,0,2.21,0,2.49-.46,2.63-2.78.14-2.08-.88-2.48-2.66-2.41-2.25.1-4.51,0-6.91,0v-4c4.55,0,9.07-.07,13.58.08.58,0,1.55,1.15,1.59,1.81.17,2.79.06,5.59,0,8.39,0,1.36-.85,1.86-2.08,1.88C33.28,25.46,32.25,25.45,30.69,25.45Z"/><path class="cls-1" d="M150,13.48l-6.17,8.07a3.83,3.83,0,0,1-.56-.52c-.59-1-1.9-2.35-1.61-3a10.69,10.69,0,0,1,3.51-4.46C146.22,12.93,148.08,13.48,150,13.48Z"/><polygon points="18.35 13.38 0 13.38 0 17.38 6.72 17.38 6.72 32.78 12.41 32.78 12.41 17.23 18.21 17.23 18.35 13.38"/><path d="M127.11,32.64l0,0c-.19.1-4,0-4.34,0-.76,0-.86-1.5-1.38-3.37-1-3.53-2-7-2.91-10.58a2.19,2.19,0,0,0-.55-1.12,1.62,1.62,0,0,0-1.18-.24c-.55,0-1.1-.05-1.64,0a1.93,1.93,0,0,0-2,1.26c-.37,1.21-.7,2.42-1.12,3.91h3.9c2.51,0,2.51,0,2.91,2.95,0,0-2.25-.05-2.43-.05a23.57,23.57,0,0,0-3,0c-1.63.15-2.3,1.56-2.66,3-.28,1.12-.52,2.24-.87,3.33a1.94,1.94,0,0,1-.37.73c-.41.42-1.57.19-2.12.19h-1.5c.44-1.59.87-3.17,1.31-4.74,1.19-4.22,2.42-8.43,3.55-12.68a2.33,2.33,0,0,1,2.67-2.05c2.33.08,4.67,0,7,.09.54,0,1.39.43,1.51.84C123.67,20.29,125.38,26.49,127.11,32.64Z"/></svg>