<svg id="Capa_1" data-name="Capa 1" xmlns="http://www.w3.org/2000/svg" viewBox="0 0 150 50"><defs><style>.cls-1{fill:#009c50;}</style></defs><path class="cls-1" d="M148.5,32.46a.35.35,0,0,0-.31-.32,3.48,3.48,0,0,0-.72,0c-.07,0-.1,0-.1.1v.58s0,.09.07.09h0a2.68,2.68,0,0,0,.8-.06A.34.34,0,0,0,148.5,32.46Z"/><path class="cls-1" d="M56.75,14.66A10.36,10.36,0,0,1,67.46,25.22c-.06,5.71-4.72,10.09-10.69,10.13a10.35,10.35,0,1,1,0-20.69ZM62.6,25a5.85,5.85,0,0,0-5.89-5.89,6.09,6.09,0,0,0-5.85,6.21,6,6,0,0,0,6,5.6A6.12,6.12,0,0,0,62.6,25Z"/><path class="cls-1" d="M32.36,35.34a10.48,10.48,0,0,1-10.58-11,10.69,10.69,0,0,1,21.33,1.14A10.57,10.57,0,0,1,32.36,35.34Zm.12-4.4c2.3.18,5.78-2.31,5.82-5.88a5.86,5.86,0,0,0-6-5.94,6.07,6.07,0,0,0-5.78,6.09A6,6,0,0,0,32.48,30.94Z"/><path class="cls-1" d="M18,17.53l-2.63,3.3a29.44,29.44,0,0,0-3.27-1.44c-4.26-1.29-7.33,2.44-7.21,5.79a5.67,5.67,0,0,0,5.75,5.72,11.1,11.1,0,0,0,2.67-.38.75.75,0,0,0,.48-.53c0-.9,0-1.79,0-2.79h-5c.45-1.26.83-2.39,1.28-3.49a1,1,0,0,1,.72-.36c2.42,0,4.84,0,7.25,0,.58,0,.72.23.72.76,0,2.89,0,5.78,0,8.67a1.16,1.16,0,0,1-.51.9C14.66,35.16,11,36,7.17,34.81a10.31,10.31,0,0,1,3.35-20.13A11.2,11.2,0,0,1,18,17.53Z"/><path class="cls-1" d="M70.05,25c0-2.92,0-5.84,0-8.77,0-.78.22-1.05,1-1,2.06.05,4.12,0,6.17,0a10.71,10.71,0,0,1,6.87,2.57c3.88,3.46,4.36,12-1.92,15.43a11.59,11.59,0,0,1-6,1.57c-1.72,0-3.44,0-5.17.05-.74,0-1-.26-1-1,0-3,0-5.91,0-8.86Zm5.11-.14c0,1.59,0,3.18,0,4.78,0,.26.3.72.48.73A6.21,6.21,0,0,0,80.31,29c1.8-1.56,1.92-3.64,1.55-5.79a3.75,3.75,0,0,0-2.48-3.08A21.57,21.57,0,0,0,76,19.42c-.63-.13-.84.2-.82.82C75.18,21.77,75.16,23.3,75.16,24.84Z"/><path class="cls-1" d="M117.35,24.92c0-3,0-5.9,0-8.85,0-.65.16-.9.86-.89,2.11.05,4.23-.08,6.34.05,4.71.29,8.53,2.42,9.42,7.54,1,5.84-1.89,10.16-7.61,11.65-2.8.72-5.65.23-8.47.35-.62,0-.53-.45-.53-.82Zm5-.06c0,1.54,0,3.08,0,4.61,0,.31.29.86.48.88,2.24.2,5.44-.55,6.24-3.68.73-2.86-.07-5.36-2.48-6.54a13.08,13.08,0,0,0-3.31-.72c-.73-.14-1,.28-1,.94C122.34,21.85,122.33,23.36,122.33,24.86Z"/><path class="cls-1" d="M106.05,34.94c-1.74,0-3.36,0-5,0-.27,0-.59-.36-.78-.63-1.52-2.28-3-4.58-4.51-6.86-.24-.36-.52-.69-.78-1l-.22.08c0,.31,0,.63,0,.94,0,2.14,0,4.28,0,6.41,0,1-.3,1.21-1.2,1.14a21.44,21.44,0,0,0-2.89,0c-.79,0-1.06-.22-1-1,0-3.34,0-6.69,0-10,0-2.59,0-5.18,0-7.77,0-.69.15-1,.9-1,2.15.05,4.3-.07,6.44.05s4.27.59,5.7,2.44a5.63,5.63,0,0,1-1.24,8c-.72.49-.81.84-.32,1.56,1.58,2.32,3.08,4.68,4.61,7C105.81,34.47,105.89,34.65,106.05,34.94ZM94.73,18.8c0,1.64.06,3.1,0,4.56,0,.9.28,1.2,1.13,1.08.17,0,.36,0,.54,0A2.67,2.67,0,0,0,98.85,22a2.56,2.56,0,0,0-1.73-3A13.22,13.22,0,0,0,94.73,18.8Z"/><path class="cls-1" d="M141.9,19.41c-.06.82-.12,1.56-.15,2.31s.24,1.09,1.06,1.05c1.21-.07,2.42,0,3.62,0,.64,0,1,.15.93.86s0,1.62,0,2.43c0,.58-.17.82-.77.81-1.21,0-2.42,0-3.62,0s-1.26.1-1.27,1.21c0,2.7,0,2.69,2.7,2.7h5.25a1.77,1.77,0,0,1,.36.11c-.34,1.18-.66,2.36-1.05,3.51a1,1,0,0,1-.77.42c-3.44,0-6.89,0-10.33,0-.67,0-.95-.18-.94-.92,0-5.93,0-11.86,0-17.79,0-.7.18-1,.91-.94,3.33,0,6.65,0,10,0,.64,0,.9.21,1,.84a15.71,15.71,0,0,0,.58,2.55c.24.75-.08.82-.68.82-1.93,0-3.86,0-5.79,0C142.56,19.36,142.24,19.39,141.9,19.41Z"/><path class="cls-1" d="M113.59,25.08c0,3,0,5.9,0,8.84,0,.87-.28,1.1-1.09,1a23.22,23.22,0,0,0-2.89,0c-.74,0-.92-.22-.91-.92,0-4.21,0-8.42,0-12.63,0-1.69-.06-3.37-.06-5.05,0-1.12.08-1.2,1.17-1.2.93,0,1.87.05,2.8,0,.78,0,1,.27.95,1C113.57,19.12,113.59,22.1,113.59,25.08Z"/></svg>