<svg id="Capa_1" data-name="Capa 1" xmlns="http://www.w3.org/2000/svg" viewBox="0 0 150 50"><defs><style>.cls-1{fill:#d71424;}</style></defs><path class="cls-1" d="M18.33,19.71,17.1,23.55s-8.65-4.33-10.84.8c0,0-1.07,4.87,6.94,3.48H12V25.16h8v4.32s-5.08,3.91-13.42,1.87S.22,22.91.22,22.91,2.57,14.63,18.33,19.71Z"/><polygon class="cls-1" points="21.65 30.98 28.06 18.85 40.24 18.85 46.49 31.14 39.12 31.14 38.05 29.06 31.1 29.06 33.19 24.89 35.86 24.89 34.9 22.96 33.19 22.96 28.97 31.03 21.65 30.98"/><polygon class="cls-1" points="55.79 27.08 55.79 18.58 48.58 18.58 48.58 27.08 48.58 31.09 55.79 31.09 67.44 31.09 67.44 27.08 55.79 27.08"/><polygon class="cls-1" points="69.92 30.95 76.33 18.82 88.51 18.82 94.77 31.11 87.39 31.11 86.32 29.02 79.38 29.02 81.46 24.85 84.13 24.85 83.17 22.93 81.46 22.93 77.24 31 69.92 30.95"/><polygon class="cls-1" points="96.99 18.9 108.37 18.9 110.83 21.25 113.98 18.8 122.27 18.8 114.41 24.3 121.52 31.2 109.87 31.2 107.63 29.06 105.01 31.25 96.99 31.25 104.31 25.74 96.99 18.9"/><polygon class="cls-1" points="124.46 18.74 134.56 18.74 138.83 23.5 143.48 18.74 150 18.74 141.08 27.45 141.08 31.14 132.58 31.14 132.58 27.51 124.46 18.74"/></svg>