<svg id="Capa_1" data-name="Capa 1" xmlns="http://www.w3.org/2000/svg" viewBox="0 0 150 50"><defs><style>.cls-1{fill:#37ab56;}.cls-2{fill:#0b4f9c;}</style></defs><polygon class="cls-1" points="20.82 16.14 24.93 16.14 21.23 27.54 30.68 27.54 29.81 30.11 16.35 30.11 20.82 16.14"/><polygon class="cls-2" points="14.3 19.89 18.41 19.89 14.71 31.29 24.16 31.29 23.29 33.86 9.83 33.86 14.3 19.89"/><path class="cls-2" d="M25.24,16.6l-.41,1.23s9.25-.1,10.53,3.39S31.3,27.8,31.3,27.8l-.62,1.8s9.27-2.93,8.48-8.43C38.49,16.54,25.24,16.6,25.24,16.6Z"/><path class="cls-2" d="M18.61,18.3a28.87,28.87,0,0,0-9.4,2.87c-4.41,2.37-6,4.22-5.39,6.63s5.55,3.75,5.55,3.75L9.11,33S0,32.27,0,27.18,12.43,18,18.61,17.27Z"/><polygon points="46.2 19.58 48.56 19.58 45.53 28.26 49.59 28.26 48.87 30.11 42.45 30.11 46.2 19.58"/><polygon points="79.64 19.58 82 19.58 78.97 28.26 83.03 28.26 82.31 30.11 75.89 30.11 79.64 19.58"/><path d="M140.58,30.21l3.2-10.34H150l-.53,1.73H145L144.25,24h4.34l-.54,1.73h-4.34l-.92,2.8h4.88l-.54,1.73Z"/><path d="M102.22,30.21h-1.88l-1.5-6.94L96.32,30.2H94.45l3.74-10.33h1.88l1.52,6.91,2.5-6.91H106Z"/><path d="M62.77,30.21H60.89l-1.5-6.94L56.87,30.2H55l3.74-10.33h1.88l1.52,6.91,2.5-6.91h1.87Z"/><path d="M84.34,26.15a9.56,9.56,0,0,1,2-4.3,6.55,6.55,0,0,1,2-1.58,5.52,5.52,0,0,1,2.52-.58,3.27,3.27,0,0,1,2.74,1.19,4,4,0,0,1,.6,3.16A8.44,8.44,0,0,1,93,27.21a7.15,7.15,0,0,1-2.36,2.35,5.71,5.71,0,0,1-3,.83,3.37,3.37,0,0,1-2.19-.66,2.88,2.88,0,0,1-1-1.62A5,5,0,0,1,84.34,26.15Zm2,0a2.34,2.34,0,0,0,.32,1.78,1.7,1.7,0,0,0,1.5.72A3,3,0,0,0,89.82,28a5.09,5.09,0,0,0,1.52-1.72,6.57,6.57,0,0,0,.86-2.24,2.5,2.5,0,0,0-.31-1.92,1.69,1.69,0,0,0-1.46-.69,3.33,3.33,0,0,0-2.64,1.45A6.76,6.76,0,0,0,86.34,26.11Z"/><polygon points="53.92 19.58 56.25 19.58 52.48 30.21 50.19 30.21 53.92 19.58"/><polygon points="130.35 19.58 132.68 19.58 128.92 30.21 126.62 30.21 130.35 19.58"/><polygon points="120.47 21.51 121.3 19.58 129.21 19.58 128.46 21.51 125.46 21.51 122.53 30.21 120.19 30.21 123.35 21.48 120.47 21.51"/><path d="M69.62,23.34a5.06,5.06,0,0,1,.68-1,5.35,5.35,0,0,1,4.4-1.05,7.23,7.23,0,0,1,1.36.31l.16,0,.68-1.58a7.46,7.46,0,0,0-3.46-.64c-.12,0-.09,0-.09,0a5.59,5.59,0,0,0-3.15.84,7.6,7.6,0,0,0-2.36,2.64,9,9,0,0,0-1,3,4,4,0,0,0,.76,3.51,3.46,3.46,0,0,0,2.64.89,7.75,7.75,0,0,0,2.35-.38,8.85,8.85,0,0,0,2-.91l1.61-4.54H71.83l-.62,1.77H73.7l-.55,1.57a7,7,0,0,1-1.25.47,5.21,5.21,0,0,1-1.36.2A1.75,1.75,0,0,1,69,27.81a2.64,2.64,0,0,1-.25-2A7.58,7.58,0,0,1,69.62,23.34Z"/><path d="M109.17,23.34a6.14,6.14,0,0,1,.68-1,5.37,5.37,0,0,1,4.41-1.05,7.23,7.23,0,0,1,1.35.31l.16,0,.68-1.58a7.46,7.46,0,0,0-3.46-.64c-.12,0-.08,0-.08,0a5.62,5.62,0,0,0-3.16.84,7.7,7.7,0,0,0-2.36,2.64,9,9,0,0,0-1,3,4,4,0,0,0,.76,3.51,3.46,3.46,0,0,0,2.64.89,7.81,7.81,0,0,0,2.36-.38,8.76,8.76,0,0,0,2-.91l1.61-4.54h-4.38l-.62,1.77h2.5l-.56,1.57a6.67,6.67,0,0,1-1.25.47,5.15,5.15,0,0,1-1.36.2,1.76,1.76,0,0,1-1.54-.64,2.64,2.64,0,0,1-.24-2A7.35,7.35,0,0,1,109.17,23.34Z"/><path d="M141.14,21.41c0-2.33-6.33-1.8-6.33-1.8l-3.7,10.62,2.12.06L134.74,26c2.21-.2,1.85,1.06,1.85,1.06v3.21l2,.06s.21-2.38.21-3.68-.48-1.47-.48-1.47A3.69,3.69,0,0,0,141.14,21.41ZM137,24.36h-1.75l1.2-3.08h1.44C140.59,22.47,137,24.36,137,24.36Z"/></svg>