<svg id="Capa_1" data-name="Capa 1" xmlns="http://www.w3.org/2000/svg" viewBox="0 0 150 50"><defs><style>.cls-1,.cls-4{fill:#00509d;}.cls-2{fill:#fff;}.cls-3{fill:none;}.cls-4{font-size:2.44px;font-family:Verdana;}</style></defs><polygon class="cls-1" points="6.38 19.95 0 30.62 12.77 30.62 6.38 19.95"/><polygon class="cls-2" points="6.41 21.1 4.19 24.81 8.62 24.81 6.41 21.1"/><polygon class="cls-2" points="9.17 26.2 6.95 29.9 11.38 29.9 9.17 26.2"/><polygon class="cls-2" points="3.73 26.2 1.52 29.9 5.95 29.9 3.73 26.2"/><polygon class="cls-2" points="6.41 29.29 8.63 25.59 4.2 25.59 6.41 29.29"/><polygon class="cls-1" points="20.91 29.68 26.78 29.68 30.37 23.58 34.11 23.58 34.95 21.97 21.59 21.97 20.6 23.5 24.57 23.5 20.91 29.68"/><path class="cls-3" d="M43,27.32a11.54,11.54,0,0,0-2.34-.06l-1.2,2.48h4.71S44.57,27.47,43,27.32Z"/><path class="cls-1" d="M52.46,24.06c.45-1.78-1.58-2-1.58-2L38.46,22,34,29.71l5.47,0,1.2-2.48a11.54,11.54,0,0,1,2.34.06c1.53.15,1.17,2.42,1.17,2.42h4.86l-.53-3.14C51.23,26,52,25.84,52.46,24.06Zm-6.34,2.26H41.59l1.5-2.9,3.16.18C48,24.62,46.12,26.32,46.12,26.32Z"/><polygon class="cls-1" points="56.86 21.97 61.82 21.97 57.37 29.91 52.45 29.8 56.86 21.97"/><path class="cls-1" d="M68.28,22l-7.91,7.74-.1.09h3.84l2-1.62h3.46l-.08,1.62h5.34l1.43-7.9Zm1.91,4.66H67.75l2.67-2.57Z"/><polygon class="cls-1" points="78.41 29.8 82.99 21.97 87.95 21.97 90.21 27.6 93.42 21.97 95.86 21.97 91.43 29.8 86.73 29.8 85.66 26.55 83.32 29.8 78.41 29.8"/><path class="cls-1" d="M105.48,27.06c.2,1.22-3.23,2.6-4.2,1.1s-.46-3.29,1.81-4.28,7.27.31,7.27.31l.79-1.22a15.06,15.06,0,0,0-8.88-.62c-4.5,1.25-5.67,3.46-5.82,5.12s2.08,3.53,7.93,1.63l-.4,1h3l2.8-5h-6L103.11,27h2.37Z"/><polygon class="cls-1" points="115.22 21.97 120.46 21.97 117.21 28.1 124.46 28.1 123.67 29.8 110.59 29.71 115.22 21.97"/><polygon class="cls-1" points="144.02 23.52 144.74 21.97 136.64 21.97 136.53 22.1 131.58 22.1 126.95 29.84 140.03 29.92 140.82 28.23 133.57 28.23 134.44 26.58 139.65 26.58 140.31 25.05 135.27 25.03 136.07 23.52 144.02 23.52"/><text class="cls-4" transform="translate(147.32 21.79) scale(1.12 1)">R</text><path class="cls-1" d="M148.27,22.83A1.73,1.73,0,1,1,150,21.11,1.72,1.72,0,0,1,148.27,22.83Zm0-3.25a1.53,1.53,0,1,0,1.53,1.53A1.53,1.53,0,0,0,148.27,19.58Z"/></svg>