<svg id="Capa_1" data-name="Capa 1" xmlns="http://www.w3.org/2000/svg" viewBox="0 0 150 50"><defs><style>.cls-1{fill:#016f59;}</style></defs><polygon class="cls-1" points="14.14 16.54 23.6 16.54 19.89 25.46 14.14 16.54"/><polygon points="7.08 16.51 13.16 16.51 19.31 26.73 17.06 32.8 7.08 16.51"/><polygon points="9.93 32.86 15.77 32.86 5.97 16.54 0 16.54 9.93 32.86"/><path d="M18.9,32.86l3.69-.74a2,2,0,0,0,1.31-1.29c.47-1.14,6.17-14.29,6.17-14.29l-4.23,0Z"/><path d="M25.1,32.8l7-16.26h4l3.3,8.92L42.65,18s.43-1,2.82-1l2,0L40.61,32.8H36.27L33.22,24l-2.85,6.75a2.18,2.18,0,0,1-1.74,1.42Z"/><path d="M60.9,16.74H49.51L42.71,32.8l-.13.25H52.77c5.11,0,6.52-3.43,6.52-3.43s3.46-7.4,4.27-10.19S60.9,16.74,60.9,16.74ZM58.54,21.9c-.37,1.27-2.48,5.71-2.48,5.71a3,3,0,0,1-3,1.57H48.44l.07-.12,3.63-8.38h5.19S58.91,20.63,58.54,21.9Z"/><path d="M60.16,32.8,65.24,21a6.17,6.17,0,0,1,6-4H82.52a6.06,6.06,0,0,1-6.22,3.83l-5.68-.07s-1.11.1-2,2.22h8.77s.91-.07.31.71a11.77,11.77,0,0,1-3.3,3.06H67.39s-.5-.21-.7.5l-1.28,3.33S64.87,33.32,60.16,32.8Z"/><path d="M96.06,17.16,86.45,17c-1.63,0-3.53,1.47-4.23,3.32l-3.45,9.19c-.7,1.85.06,3.4,1.69,3.42l9.61.17a5.08,5.08,0,0,0,4.23-3.33l3.45-9.18C98.45,18.73,97.69,17.19,96.06,17.16Zm-3.74,5.78L90.2,27.57a3.29,3.29,0,0,1-2.39,1.75l-3.43-.2a1.15,1.15,0,0,1-1-1.72l2.47-5.06A2.69,2.69,0,0,1,88,20.77l3.87.09C92.61,20.88,92.82,22,92.32,22.94Z"/><path d="M112.93,17.11H101l-6.87,16c4.67,0,5.44-2.37,5.44-2.37l1.13-3H103l2.1,5.4h4.68l-2-5.4c4.94-.15,6.17-3.87,7.31-7.39C116.08,17.11,112.93,17.11,112.93,17.11Zm-3,5.24c-.52,1.52-2.5,1.51-2.5,1.51h-5.17l1.4-3h4.86S110.46,20.83,109.94,22.35Z"/><path d="M124.94,26.91h4.25L128,29.5s-1.29,3.87-6.44,3.9l-6.94-.18s-3.35.06-2.07-3.73l4.29-9.35a5.82,5.82,0,0,1,5-2.84l8.25.12s2.32-.07,1.68,2.72c0,0-.38,2.69-1.19,3.41h-4s-.32-.08-.12-.45a5.91,5.91,0,0,0,.45-.76c0-.2.25-1.24-.82-1.19h-4s-1.43-.15-2.34,1.78l-1.81,4s-.93,2.42.37,2.48h4.54S124.4,29.28,124.94,26.91Z"/><path d="M141.83,29.59s-.92,3.61-3.82,3.73l-6.06.17s-4.11,0-2.32-4.44c.64-1.62,1.56-3.39,2.35-5.11,1.58-3.48,3.3-6.59,5.9-6.64,3.88-.09,12.12,0,12.12,0a4.71,4.71,0,0,1-4.07,3.9l-6.4-.12s-1.87,0-2.26.86-1.24,1.58-.38,1.58l8.45.05s.47-.07.19.32-1.75,3.39-3.94,3.36l-6.79-.05s-.43.32-.33,2.1c0,0,.05.32.59.29S141.83,29.59,141.83,29.59Z"/></svg>