<svg id="Capa_1" data-name="Capa 1" xmlns="http://www.w3.org/2000/svg" viewBox="0 0 150 50"><defs><style>.cls-1{fill:#f9c500;}.cls-1,.cls-2{fill-rule:evenodd;}.cls-2{fill:#e32922;}</style></defs><polygon class="cls-1" points="0 3.48 150 3.48 150 46.52 0 46.52 0 3.48 0 3.48"/><path class="cls-2" d="M25,17.51h94.81a1.53,1.53,0,0,0,0-3H25v3Zm0,21.2V21H134.76a4.7,4.7,0,0,0,4.46-4.85,4.74,4.74,0,0,0-4.46-5H11.5V38.71ZM51.5,27.59V31.1h4.69a2,2,0,0,0,.09-3.51ZM43.63,38.77V24.43h18a5.21,5.21,0,0,1,2.94,4.76A5.18,5.18,0,0,1,62,34.09l3.12,4.62h-9.2l-2.17-4.56H51.39v4.62ZM92.4,24.39h7.5V35.83h8v2.9H92.4V24.39Zm18.56,0h7.49V35.83h8v2.9H111V24.39Zm-80.49,0H38v14.3H30.47V24.42Zm39.2,0h16.7v3H77.18V30h9.17v3H77.23v2.66h9.83v3H69.67V24.47Zm59.61,0h7.51v14.3h-7.51V24.42Z"/></svg>